<?xml version="1.0" encoding="UTF-8" standalone="no"?>
<!-- Created with Inkscape (http://www.inkscape.org/) -->

<svg
   xmlns:dc="http://purl.org/dc/elements/1.1/"
   xmlns:cc="http://creativecommons.org/ns#"
   xmlns:rdf="http://www.w3.org/1999/02/22-rdf-syntax-ns#"
   xmlns:svg="http://www.w3.org/2000/svg"
   xmlns="http://www.w3.org/2000/svg"
   xmlns:sodipodi="http://sodipodi.sourceforge.net/DTD/sodipodi-0.dtd"
   xmlns:inkscape="http://www.inkscape.org/namespaces/inkscape"
   width="210mm"
   height="297mm"
   viewBox="0 0 210 297"
   version="1.1"
   id="svg8"
   sodipodi:docname="DoorSign.svg"
   inkscape:version="0.92.4 (5da689c313, 2019-01-14)">
  <defs
     id="defs2" />
  <sodipodi:namedview
     id="base"
     pagecolor="#ffffff"
     bordercolor="#666666"
     borderopacity="1.0"
     inkscape:pageopacity="0.0"
     inkscape:pageshadow="2"
     inkscape:zoom="1.2494231"
     inkscape:cx="348.45725"
     inkscape:cy="340.15699"
     inkscape:document-units="mm"
     inkscape:current-layer="layer4"
     showgrid="false"
     showguides="true"
     inkscape:guide-bbox="true"
     inkscape:snap-global="true"
     inkscape:window-width="1920"
     inkscape:window-height="1017"
     inkscape:window-x="-8"
     inkscape:window-y="-8"
     inkscape:window-maximized="1"
     inkscape:snap-bbox="true"
     inkscape:bbox-paths="true"
     inkscape:bbox-nodes="true"
     inkscape:snap-grids="true"
     inkscape:snap-bbox-midpoints="true"
     inkscape:snap-bbox-edge-midpoints="true"
     inkscape:snap-smooth-nodes="true">
    <sodipodi:guide
       position="14.531177,179.90416"
       orientation="1,0"
       id="guide837"
       inkscape:locked="false" />
    <sodipodi:guide
       position="0.095587448,165.43769"
       orientation="0,1"
       id="guide839"
       inkscape:locked="false" />
    <sodipodi:guide
       position="179.90441,165.43769"
       orientation="0,1"
       id="guide841"
       inkscape:locked="false" />
    <sodipodi:guide
       position="165.46882,0.095590003"
       orientation="1,0"
       id="guide843"
       inkscape:locked="false" />
    <sodipodi:guide
       position="0.095587448,14.56204"
       orientation="0,1"
       id="guide847"
       inkscape:locked="false" />
  </sodipodi:namedview>
  <metadata
     id="metadata5">
    <rdf:RDF>
      <cc:Work
         rdf:about="">
        <dc:format>image/svg+xml</dc:format>
        <dc:type
           rdf:resource="http://purl.org/dc/dcmitype/StillImage" />
        <dc:title></dc:title>
      </cc:Work>
    </rdf:RDF>
  </metadata>
  <g
     inkscape:label="Edge.Cuts"
     inkscape:groupmode="layer"
     id="layer1">
    <path
       style="fill:none;fill-opacity:1;stroke:#000000;stroke-width:0.19938155;stroke-linecap:butt;stroke-linejoin:miter;stroke-miterlimit:4;stroke-dasharray:none;stroke-opacity:1"
       d="m 93.31251,144.22033 c 3.301435,0.90501 6.440617,3.38615 6.440617,9.09063 0,8.15553 0.0728,3.06864 -0.10399,14.82843 -0.064,4.26344 -2.835331,6.91889 -6.336701,8.04321 v 11.84333 c 5.308904,-0.84499 9.269864,-3.64421 9.269864,-3.64421 v 3.88898 12.20022 c 3e-5,4.09551 0.14051,10.59154 -9.269864,11.68469 v 11.02972 c 22.725534,-1.3531 21.050284,-18.38377 21.050284,-18.38377 0,0 0.0643,-41.08728 0.0273,-51.7805 -0.0347,-10.02451 -6.91903,-20.15346 -21.077647,-21.38105 z M 85.414228,131.9053 c -12.966307,2.05436 -19.974881,12.00776 -20.012348,20.41564 -0.04205,9.42636 -0.0079,5.54021 0.225715,16.3244 0.160096,7.36558 4.961598,17.4867 19.786739,19.33138 v -11.71479 c -3.705234,-1.09106 -6.681271,-3.81229 -6.681271,-8.10613 0,-6.17683 0.29674,-6.04187 0.29674,-14.6493 0,-5.72123 3.377056,-8.06011 6.384531,-9.03047 z m -12.228933,66.65122 c -4.363407,-0.0511 -7.643938,0.15188 -7.643938,0.15188 0,0 -0.839301,21.29349 19.872871,24.23363 V 211.6949 c -7.459683,-2.13834 -7.585167,-9.25176 -7.585138,-12.9865 -1.613833,-0.0905 -3.189341,-0.13468 -4.643795,-0.15188 z"
       id="path4575-5"
       inkscape:connector-curvature="0"
       sodipodi:nodetypes="cscccccccccccccccccsscccccccc" />
    <circle
       style="opacity:0.97100004;vector-effect:none;fill:none;fill-opacity:1;stroke:#0c0000;stroke-width:0.26458332;stroke-linecap:butt;stroke-linejoin:miter;stroke-miterlimit:4;stroke-dasharray:none;stroke-dashoffset:0;stroke-opacity:1"
       id="path1499"
       cx="89.893982"
       cy="263.10568"
       r="19.200001" />
  </g>
  <g
     inkscape:groupmode="layer"
     id="layer4"
     inkscape:label="F.Silkscreen">
    <circle
       style="opacity:0.97100004;vector-effect:none;fill:#ff0000;fill-opacity:1;stroke:none;stroke-width:0.30316839;stroke-linecap:butt;stroke-linejoin:miter;stroke-miterlimit:4;stroke-dasharray:none;stroke-dashoffset:0;stroke-opacity:1"
       id="path1499-7"
       cx="89.893982"
       cy="263.10568"
       r="22" />
    <path
       inkscape:connector-curvature="0"
       id="rect2953-2"
       style="opacity:0.97100004;vector-effect:none;fill:#ff0000;fill-opacity:1;stroke:#ff0000;stroke-width:0.02967831;stroke-linecap:butt;stroke-linejoin:miter;stroke-miterlimit:4;stroke-dasharray:none;stroke-dashoffset:0;stroke-opacity:1"
       d="m 23.067482,202.73007 v 8.30988 h 8.30992 v -8.30988 z m 1.24649,1.24649 h 5.81695 v 5.81691 h -5.81695 z m 1.12777,1.12778 v 3.56137 h 3.56141 v -3.56137 z m 18.99412,-23.74255 v 8.30991 h 8.30993 v -8.30991 z m 1.24649,1.24649 h 5.81695 v 5.81693 h -5.81695 z m 1.12779,1.12777 v 3.5614 h 3.56139 v -3.5614 z m -23.74266,-2.37426 v 8.30991 h 8.30992 v -8.30991 z m 1.24649,1.24649 h 5.81695 v 5.81693 h -5.81695 z m 1.12777,1.12777 v 3.5614 h 3.56141 v -3.5614 z m 26.11692,26.11678 h 1.18713 v 1.18712 h -1.18713 z m -1.18713,0 h 1.18713 v 1.18712 h -1.18713 z m -1.18714,0 h 1.18714 v 1.18712 h -1.18714 z m -1.18713,0 h 1.18713 v 1.18712 h -1.18713 z m -1.18712,0 h 1.18712 v 1.18712 h -1.18712 z m -1.18715,0 h 1.18715 v 1.18712 h -1.18715 z m -1.18713,0 h 1.18713 v 1.18712 h -1.18713 z m -3.56139,0 h 1.18713 v 1.18712 h -1.18713 z m -1.18713,0 h 1.18713 v 1.18712 h -1.18713 z m -1.18714,0 h 1.18714 v 1.18712 h -1.18714 z m -1.18713,0 h 1.18713 v 1.18712 h -1.18713 z m -1.18713,0 h 1.18713 v 1.18712 h -1.18713 z m -1.18714,0 h 1.18714 v 1.18712 h -1.18714 z m -1.18713,0 h 1.18713 v 1.18712 h -1.18713 z m -1.18713,0 h 1.18713 v 1.18712 h -1.18713 z m 16.61985,-1.18712 h 1.18714 v 1.18712 h -1.18714 z m -2.37425,0 h 1.18712 v 1.18712 h -1.18712 z m -2.37428,0 h 1.18713 v 1.18712 h -1.18713 z m -4.74852,0 h 1.18713 v 1.18712 h -1.18713 z m -1.18714,0 h 1.18714 v 1.18712 h -1.18714 z m -1.18713,0 h 1.18713 v 1.18712 h -1.18713 z m -2.37427,0 h 1.18714 v 1.18712 h -1.18714 z m 15.43273,-1.18713 h 1.18713 v 1.18713 h -1.18713 z m -1.18714,0 h 1.18714 v 1.18713 h -1.18714 z m -2.37425,0 h 1.18712 v 1.18713 h -1.18712 z m -2.37428,0 h 1.18713 v 1.18713 h -1.18713 z m -2.37426,0 h 1.18713 v 1.18713 h -1.18713 z m -1.18713,0 h 1.18713 v 1.18713 h -1.18713 z m -4.74853,0 h 1.18713 v 1.18713 h -1.18713 z m -2.37427,0 h 1.18713 v 1.18713 h -1.18713 z m -1.18713,0 h 1.18713 v 1.18713 h -1.18713 z m 18.99412,-1.18712 h 1.18713 v 1.18712 h -1.18713 z m -1.18713,0 h 1.18713 v 1.18712 h -1.18713 z m -1.18714,0 h 1.18714 v 1.18712 h -1.18714 z m -1.18713,0 h 1.18713 v 1.18712 h -1.18713 z m -1.18712,0 h 1.18712 v 1.18712 h -1.18712 z m -2.37428,0 h 1.18713 v 1.18712 h -1.18713 z m -1.18713,0 h 1.18713 v 1.18712 h -1.18713 z m -1.18713,0 h 1.18713 v 1.18712 h -1.18713 z m -1.18713,0 h 1.18713 v 1.18712 h -1.18713 z m -2.37427,0 h 1.18714 v 1.18712 h -1.18714 z m -1.18713,0 h 1.18713 v 1.18712 h -1.18713 z m -4.74853,0 h 1.18713 v 1.18712 h -1.18713 z m 18.99412,-1.18712 h 1.18713 v 1.18712 h -1.18713 z m -3.5614,0 h 1.18713 v 1.18712 h -1.18713 z m -1.18712,0 h 1.18712 v 1.18712 h -1.18712 z m -1.18715,0 h 1.18715 v 1.18712 h -1.18715 z m -1.18713,0 h 1.18713 v 1.18712 h -1.18713 z m -1.18713,0 h 1.18713 v 1.18712 h -1.18713 z m -1.18713,0 h 1.18713 v 1.18712 h -1.18713 z m -2.37426,0 h 1.18713 v 1.18712 h -1.18713 z m -3.5614,0 h 1.18713 v 1.18712 h -1.18713 z m -1.18714,0 h 1.18714 v 1.18712 h -1.18714 z m -1.18713,0 h 1.18713 v 1.18712 h -1.18713 z m 16.61986,-1.18714 h 1.18713 v 1.18714 h -1.18713 z m -3.56139,0 h 1.18712 v 1.18714 h -1.18712 z m -4.74854,0 h 1.18713 v 1.18714 h -1.18713 z m -1.18713,0 h 1.18713 v 1.18714 h -1.18713 z m -1.18713,0 h 1.18713 v 1.18714 h -1.18713 z m -2.37427,0 h 1.18713 v 1.18714 h -1.18713 z m -4.74853,0 h 1.18713 v 1.18714 h -1.18713 z m 18.99412,-1.18713 h 1.18713 v 1.18713 h -1.18713 z m -1.18713,0 h 1.18713 v 1.18713 h -1.18713 z m -1.18714,0 h 1.18714 v 1.18713 h -1.18714 z m -2.37425,0 h 1.18712 v 1.18713 h -1.18712 z m -2.37428,0 h 1.18713 v 1.18713 h -1.18713 z m -2.37426,0 h 1.18713 v 1.18713 h -1.18713 z m -2.37426,0 h 1.18713 v 1.18713 h -1.18713 z m -2.37427,0 h 1.18713 v 1.18713 h -1.18713 z m -1.18713,0 h 1.18713 v 1.18713 h -1.18713 z m -2.37427,0 h 1.18713 v 1.18713 h -1.18713 z m -1.18713,0 h 1.18713 v 1.18713 h -1.18713 z m 18.99412,-1.18712 h 1.18713 v 1.18712 h -1.18713 z m -2.37427,0 h 1.18714 v 1.18712 h -1.18714 z m -2.37425,0 h 1.18712 v 1.18712 h -1.18712 z m -4.74854,0 h 1.18713 v 1.18712 h -1.18713 z m -2.37426,0 h 1.18713 v 1.18712 h -1.18713 z m -1.18714,0 h 1.18714 v 1.18712 h -1.18714 z m -1.18713,0 h 1.18713 v 1.18712 h -1.18713 z m -4.74853,0 h 1.18713 v 1.18712 h -1.18713 z m 18.99412,-1.18713 h 1.18713 v 1.18713 h -1.18713 z m -1.18713,0 h 1.18713 v 1.18713 h -1.18713 z m -1.18714,0 h 1.18714 v 1.18713 h -1.18714 z m -1.18713,0 h 1.18713 v 1.18713 h -1.18713 z m -1.18712,0 h 1.18712 v 1.18713 h -1.18712 z m -1.18715,0 h 1.18715 v 1.18713 h -1.18715 z m -1.18713,0 h 1.18713 v 1.18713 h -1.18713 z m -1.18713,0 h 1.18713 v 1.18713 h -1.18713 z m -1.18713,0 h 1.18713 v 1.18713 h -1.18713 z m -3.5614,0 h 1.18714 v 1.18713 h -1.18714 z m -2.37426,0 h 1.18713 v 1.18713 h -1.18713 z m -1.18714,0 h 1.18714 v 1.18713 h -1.18714 z m -1.18713,0 h 1.18713 v 1.18713 h -1.18713 z m -3.5614,0 h 1.18713 v 1.18713 h -1.18713 z m -1.18712,0 h 1.18712 v 1.18713 h -1.18712 z m 22.55551,-1.18712 h 1.18713 v 1.18712 h -1.18713 z m -4.74852,0 h 1.18712 v 1.18712 h -1.18712 z m -1.18715,0 h 1.18715 v 1.18712 h -1.18715 z m -2.37426,0 h 1.18713 v 1.18712 h -1.18713 z m -1.18713,0 h 1.18713 v 1.18712 h -1.18713 z m -1.18713,0 h 1.18713 v 1.18712 h -1.18713 z m -3.5614,0 h 1.18713 v 1.18712 h -1.18713 z m -4.74853,0 h 1.18713 v 1.18712 h -1.18713 z m -1.18714,0 h 1.18714 v 1.18712 h -1.18714 z m -2.37425,0 h 1.18712 v 1.18712 h -1.18712 z m -2.37427,0 h 1.18713 v 1.18712 h -1.18713 z m -1.18714,0 h 1.18714 v 1.18712 h -1.18714 z m -2.37426,0 h 1.18713 v 1.18712 h -1.18713 z m 27.30405,-1.18712 h 1.18713 v 1.18712 h -1.18713 z m -1.18714,0 h 1.18714 v 1.18712 h -1.18714 z m -2.37425,0 h 1.18712 v 1.18712 h -1.18712 z m -3.56141,0 h 1.18713 v 1.18712 h -1.18713 z m -1.18713,0 h 1.18713 v 1.18712 h -1.18713 z m -3.5614,0 h 1.18714 v 1.18712 h -1.18714 z m -1.18713,0 h 1.18713 v 1.18712 h -1.18713 z m -3.5614,0 h 1.18713 v 1.18712 h -1.18713 z m -2.37427,0 h 1.18714 v 1.18712 h -1.18714 z m -1.18713,0 h 1.18713 v 1.18712 h -1.18713 z m -4.74853,0 h 1.18714 v 1.18712 h -1.18714 z m -1.18713,0 h 1.18713 v 1.18712 h -1.18713 z m 27.30405,-1.18714 h 1.18713 v 1.18714 h -1.18713 z m -4.74852,0 h 1.18712 v 1.18714 h -1.18712 z m -1.18715,0 h 1.18715 v 1.18714 h -1.18715 z m -1.18713,0 h 1.18713 v 1.18714 h -1.18713 z m -2.37426,0 h 1.18713 v 1.18714 h -1.18713 z m -1.18713,0 h 1.18713 v 1.18714 h -1.18713 z m -1.18713,0 h 1.18713 v 1.18714 h -1.18713 z m -1.18714,0 h 1.18714 v 1.18714 h -1.18714 z m -2.37426,0 h 1.18713 v 1.18714 h -1.18713 z m -2.37427,0 h 1.18713 v 1.18714 h -1.18713 z m -1.18713,0 h 1.18713 v 1.18714 h -1.18713 z m -3.56139,0 h 1.18712 v 1.18714 h -1.18712 z m -1.18714,0 h 1.18714 v 1.18714 h -1.18714 z m -3.5614,0 h 1.18713 v 1.18714 h -1.18713 z m 27.30405,-1.18711 h 1.18713 v 1.18711 h -1.18713 z m -1.18713,0 h 1.18713 v 1.18711 h -1.18713 z m -1.18714,0 h 1.18714 v 1.18711 h -1.18714 z m -2.37425,0 h 1.18712 v 1.18711 h -1.18712 z m -1.18715,0 h 1.18715 v 1.18711 h -1.18715 z m -1.18713,0 h 1.18713 v 1.18711 h -1.18713 z m -1.18713,0 h 1.18713 v 1.18711 h -1.18713 z m -2.37426,0 h 1.18713 v 1.18711 h -1.18713 z m -1.18713,0 h 1.18713 v 1.18711 h -1.18713 z m -1.18714,0 h 1.18714 v 1.18711 h -1.18714 z m -2.37426,0 h 1.18713 v 1.18711 h -1.18713 z m -4.74854,0 h 1.18714 v 1.18711 h -1.18714 z m -1.18713,0 h 1.18713 v 1.18711 h -1.18713 z m -3.56139,0 h 1.18713 v 1.18711 h -1.18713 z m -1.18714,0 h 1.18714 v 1.18711 h -1.18714 z m -1.18713,0 h 1.18713 v 1.18711 h -1.18713 z m 24.92978,-1.18713 h 1.18714 v 1.18713 h -1.18714 z m -1.18713,0 h 1.18713 v 1.18713 h -1.18713 z m -2.37427,0 h 1.18715 v 1.18713 h -1.18715 z m -1.18713,0 h 1.18713 v 1.18713 h -1.18713 z m -5.93566,0 h 1.18714 v 1.18713 h -1.18714 z m -2.37426,0 h 1.18713 v 1.18713 h -1.18713 z m -3.5614,0 h 1.18713 v 1.18713 h -1.18713 z m -1.18714,0 h 1.18714 v 1.18713 h -1.18714 z m -2.37425,0 h 1.18712 v 1.18713 h -1.18712 z m -1.18714,0 h 1.18714 v 1.18713 h -1.18714 z m -2.37427,0 h 1.18714 v 1.18713 h -1.18714 z m -1.18713,0 h 1.18713 v 1.18713 h -1.18713 z m 22.55553,-1.18714 h 1.18712 v 1.18714 h -1.18712 z m -1.18715,0 h 1.18715 v 1.18714 h -1.18715 z m -3.56139,0 h 1.18713 v 1.18714 h -1.18713 z m -3.5614,0 h 1.18714 v 1.18714 h -1.18714 z m -1.18713,0 h 1.18713 v 1.18714 h -1.18713 z m -4.74853,0 h 1.18713 v 1.18714 h -1.18713 z m -1.18714,0 h 1.18714 v 1.18714 h -1.18714 z m -1.18713,0 h 1.18713 v 1.18714 h -1.18713 z m -1.18712,0 h 1.18712 v 1.18714 h -1.18712 z m -3.56141,0 h 1.18714 v 1.18714 h -1.18714 z m 24.92979,-1.18712 h 1.18713 v 1.18712 h -1.18713 z m -4.74854,0 h 1.18715 v 1.18712 h -1.18715 z m -2.37426,0 h 1.18713 v 1.18712 h -1.18713 z m -4.74853,0 h 1.18714 v 1.18712 h -1.18714 z m -3.5614,0 h 1.18714 v 1.18712 h -1.18714 z m -2.37426,0 h 1.18713 v 1.18712 h -1.18713 z m -1.18714,0 h 1.18714 v 1.18712 h -1.18714 z m -3.56139,0 h 1.18714 v 1.18712 h -1.18714 z m -2.37427,0 h 1.18714 v 1.18712 h -1.18714 z m -2.37426,0 h 1.18713 v 1.18712 h -1.18713 z m 28.49118,-1.18712 h 1.18713 v 1.18712 h -1.18713 z m -1.18713,0 h 1.18713 v 1.18712 h -1.18713 z m -2.37427,0 h 1.18713 v 1.18712 h -1.18713 z m -3.5614,0 h 1.18713 v 1.18712 h -1.18713 z m -2.37426,0 h 1.18713 v 1.18712 h -1.18713 z m -1.18713,0 h 1.18713 v 1.18712 h -1.18713 z m -4.74853,0 h 1.18713 v 1.18712 h -1.18713 z m -1.18714,0 h 1.18714 v 1.18712 h -1.18714 z m -3.5614,0 h 1.18714 v 1.18712 h -1.18714 z m -1.18713,0 h 1.18713 v 1.18712 h -1.18713 z m -1.18712,0 h 1.18712 v 1.18712 h -1.18712 z m -2.37427,0 h 1.18713 v 1.18712 h -1.18713 z m -1.18714,0 h 1.18714 v 1.18712 h -1.18714 z m -2.37426,0 h 1.18713 v 1.18712 h -1.18713 z m 18.99412,-1.18712 h 1.18713 v 1.18712 h -1.18713 z m -1.18713,0 h 1.18713 v 1.18712 h -1.18713 z m -3.5614,0 h 1.18713 v 1.18712 h -1.18713 z m -3.5614,0 h 1.18713 v 1.18712 h -1.18713 z m -1.18713,0 h 1.18713 v 1.18712 h -1.18713 z m 9.49706,-1.18713 h 1.18713 v 1.18713 h -1.18713 z m -2.37426,0 h 1.18713 v 1.18713 h -1.18713 z m -2.37427,0 h 1.18713 v 1.18713 h -1.18713 z m -2.37427,0 h 1.18714 v 1.18713 h -1.18714 z m -2.37426,0 h 1.18713 v 1.18713 h -1.18713 z m 5.93566,-1.18712 h 1.18714 v 1.18712 h -1.18714 z m -3.5614,0 h 1.18714 v 1.18712 h -1.18714 z m 7.1228,-1.18714 h 1.18713 v 1.18714 h -1.18713 z m -1.18713,0 h 1.18713 v 1.18714 h -1.18713 z m -2.37427,0 h 1.18714 v 1.18714 h -1.18714 z m -2.37426,0 h 1.18713 v 1.18714 h -1.18713 z m 2.37426,-1.18712 h 1.18714 v 1.18712 h -1.18714 z m -4.74853,0 h 1.18713 v 1.18712 h -1.18713 z m -1.18713,0 h 1.18713 v 1.18712 h -1.18713 z m 9.49706,-1.18714 h 1.18713 v 1.18714 h -1.18713 z m -2.37426,0 h 1.18713 v 1.18714 h -1.18713 z m -1.18714,0 h 1.18714 v 1.18714 h -1.18714 z m -1.18713,0 h 1.18713 v 1.18714 h -1.18713 z m -1.18713,0 h 1.18713 v 1.18714 h -1.18713 z m 2.37426,-1.18713 h 1.18714 v 1.18713 h -1.18714 z m -2.37426,0 h 1.18713 v 1.18713 h -1.18713 z m -3.5614,0 h 1.18713 v 1.18713 h -1.18713 z m 9.49706,-1.18713 h 1.18713 v 1.18713 h -1.18713 z m -2.37426,0 h 1.18713 v 1.18713 h -1.18713 z m -2.37427,0 h 1.18713 v 1.18713 h -1.18713 z m -1.18713,0 h 1.18713 v 1.18713 h -1.18713 z m -1.18714,0 h 1.18714 v 1.18713 h -1.18714 z m -2.37426,0 h 1.18713 v 1.18713 h -1.18713 z" />
    <g
       id="g901"
       transform="translate(-0.10601679)">
      <path
         sodipodi:nodetypes="ccccccccc"
         inkscape:connector-curvature="0"
         d="M 0.09558745,282.43796 V 131.56231 c 0,-7.98961 6.46304005,-14.46646 14.43558955,-14.46646 H 165.46882 c 7.97256,0 14.43559,6.47686 14.43559,14.46646 v 150.87565 c 0,7.98961 -6.46304,14.46645 -14.43559,14.46645 H 14.531177 c -7.9725495,0 -14.43558955,-6.47684 -14.43558955,-14.46645 z"
         style="fill:none;fill-opacity:1;stroke:#000000;stroke-width:0.19117491px;stroke-linecap:butt;stroke-linejoin:miter;stroke-opacity:1"
         id="path4684" />
      <circle
         r="3.2"
         cy="131.56232"
         cx="14.531177"
         id="path851"
         style="opacity:0.97100004;vector-effect:none;fill:none;fill-opacity:1;stroke:#0c0000;stroke-width:0.26458332;stroke-linecap:butt;stroke-linejoin:miter;stroke-miterlimit:4;stroke-dasharray:none;stroke-dashoffset:0;stroke-opacity:1" />
      <circle
         r="3.2"
         cy="131.56232"
         cx="165.46883"
         id="path851-4"
         style="opacity:0.97100004;vector-effect:none;fill:none;fill-opacity:1;stroke:#0c0000;stroke-width:0.26458332;stroke-linecap:butt;stroke-linejoin:miter;stroke-miterlimit:4;stroke-dasharray:none;stroke-dashoffset:0;stroke-opacity:1" />
      <circle
         r="3.2"
         cy="282.43796"
         cx="165.46883"
         id="path851-9"
         style="opacity:0.97100004;vector-effect:none;fill:none;fill-opacity:1;stroke:#0c0000;stroke-width:0.26458332;stroke-linecap:butt;stroke-linejoin:miter;stroke-miterlimit:4;stroke-dasharray:none;stroke-dashoffset:0;stroke-opacity:1" />
      <circle
         r="3.2"
         cy="282.43796"
         cx="14.531177"
         id="path851-1"
         style="opacity:0.97100004;vector-effect:none;fill:none;fill-opacity:1;stroke:#0c0000;stroke-width:0.26458332;stroke-linecap:butt;stroke-linejoin:miter;stroke-miterlimit:4;stroke-dasharray:none;stroke-dashoffset:0;stroke-opacity:1" />
    </g>
    <text
       xml:space="preserve"
       style="font-style:normal;font-variant:normal;font-weight:normal;font-stretch:normal;font-size:10.58333302px;line-height:1.25;font-family:Bahnschrift;-inkscape-font-specification:Bahnschrift;letter-spacing:0px;word-spacing:0px;fill:#ff0000;fill-opacity:1;stroke:none;stroke-width:0.26458332;"
       x="44.470524"
       y="236.22362"
       id="text2109"><tspan
         sodipodi:role="line"
         id="tspan2107"
         x="44.470524"
         y="236.22362"
         style="stroke-width:0.26458332;fill:#ff0000;fill-opacity:1;stroke:none;">50°48'32.3&quot;N 6°15'50.6&quot;E</tspan></text>
    <flowRoot
       xml:space="preserve"
       id="flowRoot2241"
       style="fill:black;fill-opacity:1;stroke:none;font-family:Bahnschrift;font-style:normal;font-weight:normal;font-size:40px;line-height:1.25;letter-spacing:0px;word-spacing:0px;-inkscape-font-specification:Bahnschrift;font-stretch:normal;font-variant:normal"><flowRegion
         id="flowRegion2243"><rect
           id="rect2245"
           width="372.17175"
           height="50.423271"
           x="445.00537"
           y="684.71765" /></flowRegion><flowPara
         id="flowPara2247"></flowPara></flowRoot>    <text
       xml:space="preserve"
       style="font-style:normal;font-variant:normal;font-weight:normal;font-stretch:normal;font-size:5.64444444px;line-height:1.25;font-family:Bahnschrift;-inkscape-font-specification:Bahnschrift;letter-spacing:0px;word-spacing:0px;fill:#ff0000;fill-opacity:1;stroke:none;stroke-width:0.26458332;"
       x="116.89395"
       y="246.38831"
       id="text2235"><tspan
         sodipodi:role="line"
         id="tspan2233"
         x="116.89395"
         y="246.38831"
         style="font-size:5.64444444px;stroke-width:0.26458332;fill:#ff0000;fill-opacity:1;">///ursache.beim.markieren</tspan></text>
    <text
       xml:space="preserve"
       style="font-style:normal;font-variant:normal;font-weight:normal;font-stretch:normal;font-size:10.58333302px;line-height:1.25;font-family:Bahnschrift;-inkscape-font-specification:Bahnschrift;letter-spacing:0px;word-spacing:0px;fill:#ff0000;fill-opacity:1;stroke:none;stroke-width:0.26458332"
       x="115.90478"
       y="257.5997"
       id="text2239"><tspan
         sodipodi:role="line"
         id="tspan2237"
         x="115.90478"
         y="257.5997"
         style="font-size:5.64444444px;stroke-width:0.26458332;fill:#ff0000;fill-opacity:1">///only.sang.mediate</tspan></text>
    <text
       xml:space="preserve"
       style="font-style:normal;font-variant:normal;font-weight:normal;font-stretch:normal;font-size:10.58333302px;line-height:10px;font-family:Bahnschrift;-inkscape-font-specification:Bahnschrift;letter-spacing:0px;word-spacing:0px;fill:#ff0000;fill-opacity:1;stroke:none;stroke-width:0.26458332"
       x="65.973511"
       y="251.29231"
       id="text2489"><tspan
         sodipodi:role="line"
         x="65.973511"
         y="251.29231"
         style="font-size:9.87777805px;line-height:10px;text-align:end;text-anchor:end;stroke-width:0.26458332;fill:#ff0000;fill-opacity:1;"
         id="tspan2491">MARIAN</tspan><tspan
         sodipodi:role="line"
         x="65.973511"
         y="261.49969"
         style="font-size:9.87777805px;line-height:10px;text-align:end;text-anchor:end;stroke-width:0.26458332;fill:#ff0000;fill-opacity:1;"
         id="tspan2495">ALDENHÖVEL</tspan></text>
  </g>
  <g
     inkscape:groupmode="layer"
     id="layer2"
     inkscape:label="Hilfslinien" />
</svg>
