<?xml version="1.0" encoding="UTF-8" standalone="no"?>
<!-- Created with Inkscape (http://www.inkscape.org/) -->

<svg
   xmlns:dc="http://purl.org/dc/elements/1.1/"
   xmlns:cc="http://creativecommons.org/ns#"
   xmlns:rdf="http://www.w3.org/1999/02/22-rdf-syntax-ns#"
   xmlns:svg="http://www.w3.org/2000/svg"
   xmlns="http://www.w3.org/2000/svg"
   xmlns:sodipodi="http://sodipodi.sourceforge.net/DTD/sodipodi-0.dtd"
   xmlns:inkscape="http://www.inkscape.org/namespaces/inkscape"
   width="210mm"
   height="297mm"
   viewBox="0 0 210 297"
   version="1.1"
   id="svg8"
   sodipodi:docname="DoorSign.svg"
   inkscape:version="0.92.4 (5da689c313, 2019-01-14)">
  <defs
     id="defs2" />
  <sodipodi:namedview
     id="base"
     pagecolor="#ffffff"
     bordercolor="#666666"
     borderopacity="1.0"
     inkscape:pageopacity="0.0"
     inkscape:pageshadow="2"
     inkscape:zoom="1"
     inkscape:cx="76.331654"
     inkscape:cy="341.84894"
     inkscape:document-units="mm"
     inkscape:current-layer="layer1"
     showgrid="false"
     showguides="true"
     inkscape:guide-bbox="true"
     inkscape:snap-global="true"
     inkscape:window-width="1920"
     inkscape:window-height="1017"
     inkscape:window-x="-8"
     inkscape:window-y="-8"
     inkscape:window-maximized="1"
     inkscape:snap-bbox="true"
     inkscape:bbox-paths="true"
     inkscape:bbox-nodes="true"
     inkscape:snap-grids="true"
     inkscape:snap-bbox-midpoints="true"
     inkscape:snap-bbox-edge-midpoints="true"
     inkscape:snap-smooth-nodes="true">
    <sodipodi:guide
       position="14.531177,179.90416"
       orientation="1,0"
       id="guide837"
       inkscape:locked="false" />
    <sodipodi:guide
       position="0.095587448,165.43769"
       orientation="0,1"
       id="guide839"
       inkscape:locked="false" />
    <sodipodi:guide
       position="179.90441,165.43769"
       orientation="0,1"
       id="guide841"
       inkscape:locked="false" />
    <sodipodi:guide
       position="165.46882,0.095590003"
       orientation="1,0"
       id="guide843"
       inkscape:locked="false" />
    <sodipodi:guide
       position="0.095587448,14.56204"
       orientation="0,1"
       id="guide847"
       inkscape:locked="false" />
  </sodipodi:namedview>
  <metadata
     id="metadata5">
    <rdf:RDF>
      <cc:Work
         rdf:about="">
        <dc:format>image/svg+xml</dc:format>
        <dc:type
           rdf:resource="http://purl.org/dc/dcmitype/StillImage" />
        <dc:title />
      </cc:Work>
    </rdf:RDF>
  </metadata>
  <g
     inkscape:label="Edge.Cuts"
     inkscape:groupmode="layer"
     id="layer1">
    <path
       style="fill:none;fill-opacity:1;stroke:#000000;stroke-width:0.19938155;stroke-linecap:butt;stroke-linejoin:miter;stroke-miterlimit:4;stroke-dasharray:none;stroke-opacity:1"
       d="m 93.31251,144.22033 c 3.301435,0.90501 6.440617,3.38615 6.440617,9.09063 0,8.15553 0.0728,3.06864 -0.10399,14.82843 -0.064,4.26344 -2.835331,6.91889 -6.336701,8.04321 v 11.84333 c 5.308904,-0.84499 9.269864,-3.64421 9.269864,-3.64421 v 3.88898 12.20022 c 3e-5,4.09551 0.14051,10.59154 -9.269864,11.68469 v 11.02972 c 22.725534,-1.3531 21.050284,-18.38377 21.050284,-18.38377 0,0 0.0643,-41.08728 0.0273,-51.7805 -0.0347,-10.02451 -6.91903,-20.15346 -21.077647,-21.38105 z M 85.414228,131.9053 c -12.966307,2.05436 -19.974881,12.00776 -20.012348,20.41564 -0.04205,9.42636 -0.0079,5.54021 0.225715,16.3244 0.160096,7.36558 4.961598,17.4867 19.786739,19.33138 v -11.71479 c -3.705234,-1.09106 -6.681271,-3.81229 -6.681271,-8.10613 0,-6.17683 0.29674,-6.04187 0.29674,-14.6493 0,-5.72123 3.377056,-8.06011 6.384531,-9.03047 z m -12.228933,66.65122 c -4.363407,-0.0511 -7.643938,0.15188 -7.643938,0.15188 0,0 -0.839301,21.29349 19.872871,24.23363 V 211.6949 c -7.459683,-2.13834 -7.585167,-9.25176 -7.585138,-12.9865 -1.613833,-0.0905 -3.189341,-0.13468 -4.643795,-0.15188 z"
       id="path4575-5"
       inkscape:connector-curvature="0"
       sodipodi:nodetypes="cscccccccccccccccccsscccccccc" />
    <circle
       style="opacity:0.97100004;vector-effect:none;fill:none;fill-opacity:1;stroke:#0c0000;stroke-width:0.11291017;stroke-linecap:butt;stroke-linejoin:miter;stroke-miterlimit:4;stroke-dasharray:none;stroke-dashoffset:0;stroke-opacity:1"
       id="path1499"
       cx="89.893982"
       cy="260.95862"
       r="8.1935453" />
  </g>
  <g
     inkscape:groupmode="layer"
     id="layer4"
     inkscape:label="F.Silkscreen">
    <path
       inkscape:connector-curvature="0"
       id="rect2953-2"
       style="opacity:0.97100004;vector-effect:none;fill:#ff0000;fill-opacity:1;stroke:#ff0000;stroke-width:0.02967831;stroke-linecap:butt;stroke-linejoin:miter;stroke-miterlimit:4;stroke-dasharray:none;stroke-dashoffset:0;stroke-opacity:1"
       d="m 23.067482,202.73007 v 8.30988 h 8.30992 v -8.30988 z m 1.24649,1.24649 h 5.81695 v 5.81691 h -5.81695 z m 1.12777,1.12778 v 3.56137 h 3.56141 v -3.56137 z m 18.99412,-23.74255 v 8.30991 h 8.30993 v -8.30991 z m 1.24649,1.24649 h 5.81695 v 5.81693 h -5.81695 z m 1.12779,1.12777 v 3.5614 h 3.56139 v -3.5614 z m -23.74266,-2.37426 v 8.30991 h 8.30992 v -8.30991 z m 1.24649,1.24649 h 5.81695 v 5.81693 h -5.81695 z m 1.12777,1.12777 v 3.5614 h 3.56141 v -3.5614 z m 26.11692,26.11678 h 1.18713 v 1.18712 h -1.18713 z m -1.18713,0 h 1.18713 v 1.18712 h -1.18713 z m -1.18714,0 h 1.18714 v 1.18712 h -1.18714 z m -1.18713,0 h 1.18713 v 1.18712 h -1.18713 z m -1.18712,0 h 1.18712 v 1.18712 h -1.18712 z m -1.18715,0 h 1.18715 v 1.18712 h -1.18715 z m -1.18713,0 h 1.18713 v 1.18712 h -1.18713 z m -3.56139,0 h 1.18713 v 1.18712 h -1.18713 z m -1.18713,0 h 1.18713 v 1.18712 h -1.18713 z m -1.18714,0 h 1.18714 v 1.18712 h -1.18714 z m -1.18713,0 h 1.18713 v 1.18712 h -1.18713 z m -1.18713,0 h 1.18713 v 1.18712 h -1.18713 z m -1.18714,0 h 1.18714 v 1.18712 h -1.18714 z m -1.18713,0 h 1.18713 v 1.18712 h -1.18713 z m -1.18713,0 h 1.18713 v 1.18712 h -1.18713 z m 16.61985,-1.18712 h 1.18714 v 1.18712 h -1.18714 z m -2.37425,0 h 1.18712 v 1.18712 h -1.18712 z m -2.37428,0 h 1.18713 v 1.18712 h -1.18713 z m -4.74852,0 h 1.18713 v 1.18712 h -1.18713 z m -1.18714,0 h 1.18714 v 1.18712 h -1.18714 z m -1.18713,0 h 1.18713 v 1.18712 h -1.18713 z m -2.37427,0 h 1.18714 v 1.18712 h -1.18714 z m 15.43273,-1.18713 h 1.18713 v 1.18713 h -1.18713 z m -1.18714,0 h 1.18714 v 1.18713 h -1.18714 z m -2.37425,0 h 1.18712 v 1.18713 h -1.18712 z m -2.37428,0 h 1.18713 v 1.18713 h -1.18713 z m -2.37426,0 h 1.18713 v 1.18713 h -1.18713 z m -1.18713,0 h 1.18713 v 1.18713 h -1.18713 z m -4.74853,0 h 1.18713 v 1.18713 h -1.18713 z m -2.37427,0 h 1.18713 v 1.18713 h -1.18713 z m -1.18713,0 h 1.18713 v 1.18713 h -1.18713 z m 18.99412,-1.18712 h 1.18713 v 1.18712 h -1.18713 z m -1.18713,0 h 1.18713 v 1.18712 h -1.18713 z m -1.18714,0 h 1.18714 v 1.18712 h -1.18714 z m -1.18713,0 h 1.18713 v 1.18712 h -1.18713 z m -1.18712,0 h 1.18712 v 1.18712 h -1.18712 z m -2.37428,0 h 1.18713 v 1.18712 h -1.18713 z m -1.18713,0 h 1.18713 v 1.18712 h -1.18713 z m -1.18713,0 h 1.18713 v 1.18712 h -1.18713 z m -1.18713,0 h 1.18713 v 1.18712 h -1.18713 z m -2.37427,0 h 1.18714 v 1.18712 h -1.18714 z m -1.18713,0 h 1.18713 v 1.18712 h -1.18713 z m -4.74853,0 h 1.18713 v 1.18712 h -1.18713 z m 18.99412,-1.18712 h 1.18713 v 1.18712 h -1.18713 z m -3.5614,0 h 1.18713 v 1.18712 h -1.18713 z m -1.18712,0 h 1.18712 v 1.18712 h -1.18712 z m -1.18715,0 h 1.18715 v 1.18712 h -1.18715 z m -1.18713,0 h 1.18713 v 1.18712 h -1.18713 z m -1.18713,0 h 1.18713 v 1.18712 h -1.18713 z m -1.18713,0 h 1.18713 v 1.18712 h -1.18713 z m -2.37426,0 h 1.18713 v 1.18712 h -1.18713 z m -3.5614,0 h 1.18713 v 1.18712 h -1.18713 z m -1.18714,0 h 1.18714 v 1.18712 h -1.18714 z m -1.18713,0 h 1.18713 v 1.18712 h -1.18713 z m 16.61986,-1.18714 h 1.18713 v 1.18714 h -1.18713 z m -3.56139,0 h 1.18712 v 1.18714 h -1.18712 z m -4.74854,0 h 1.18713 v 1.18714 h -1.18713 z m -1.18713,0 h 1.18713 v 1.18714 h -1.18713 z m -1.18713,0 h 1.18713 v 1.18714 h -1.18713 z m -2.37427,0 h 1.18713 v 1.18714 h -1.18713 z m -4.74853,0 h 1.18713 v 1.18714 h -1.18713 z m 18.99412,-1.18713 h 1.18713 v 1.18713 h -1.18713 z m -1.18713,0 h 1.18713 v 1.18713 h -1.18713 z m -1.18714,0 h 1.18714 v 1.18713 h -1.18714 z m -2.37425,0 h 1.18712 v 1.18713 h -1.18712 z m -2.37428,0 h 1.18713 v 1.18713 h -1.18713 z m -2.37426,0 h 1.18713 v 1.18713 h -1.18713 z m -2.37426,0 h 1.18713 v 1.18713 h -1.18713 z m -2.37427,0 h 1.18713 v 1.18713 h -1.18713 z m -1.18713,0 h 1.18713 v 1.18713 h -1.18713 z m -2.37427,0 h 1.18713 v 1.18713 h -1.18713 z m -1.18713,0 h 1.18713 v 1.18713 h -1.18713 z m 18.99412,-1.18712 h 1.18713 v 1.18712 h -1.18713 z m -2.37427,0 h 1.18714 v 1.18712 h -1.18714 z m -2.37425,0 h 1.18712 v 1.18712 h -1.18712 z m -4.74854,0 h 1.18713 v 1.18712 h -1.18713 z m -2.37426,0 h 1.18713 v 1.18712 h -1.18713 z m -1.18714,0 h 1.18714 v 1.18712 h -1.18714 z m -1.18713,0 h 1.18713 v 1.18712 h -1.18713 z m -4.74853,0 h 1.18713 v 1.18712 h -1.18713 z m 18.99412,-1.18713 h 1.18713 v 1.18713 h -1.18713 z m -1.18713,0 h 1.18713 v 1.18713 h -1.18713 z m -1.18714,0 h 1.18714 v 1.18713 h -1.18714 z m -1.18713,0 h 1.18713 v 1.18713 h -1.18713 z m -1.18712,0 h 1.18712 v 1.18713 h -1.18712 z m -1.18715,0 h 1.18715 v 1.18713 h -1.18715 z m -1.18713,0 h 1.18713 v 1.18713 h -1.18713 z m -1.18713,0 h 1.18713 v 1.18713 h -1.18713 z m -1.18713,0 h 1.18713 v 1.18713 h -1.18713 z m -3.5614,0 h 1.18714 v 1.18713 h -1.18714 z m -2.37426,0 h 1.18713 v 1.18713 h -1.18713 z m -1.18714,0 h 1.18714 v 1.18713 h -1.18714 z m -1.18713,0 h 1.18713 v 1.18713 h -1.18713 z m -3.5614,0 h 1.18713 v 1.18713 h -1.18713 z m -1.18712,0 h 1.18712 v 1.18713 h -1.18712 z m 22.55551,-1.18712 h 1.18713 v 1.18712 h -1.18713 z m -4.74852,0 h 1.18712 v 1.18712 h -1.18712 z m -1.18715,0 h 1.18715 v 1.18712 h -1.18715 z m -2.37426,0 h 1.18713 v 1.18712 h -1.18713 z m -1.18713,0 h 1.18713 v 1.18712 h -1.18713 z m -1.18713,0 h 1.18713 v 1.18712 h -1.18713 z m -3.5614,0 h 1.18713 v 1.18712 h -1.18713 z m -4.74853,0 h 1.18713 v 1.18712 h -1.18713 z m -1.18714,0 h 1.18714 v 1.18712 h -1.18714 z m -2.37425,0 h 1.18712 v 1.18712 h -1.18712 z m -2.37427,0 h 1.18713 v 1.18712 h -1.18713 z m -1.18714,0 h 1.18714 v 1.18712 h -1.18714 z m -2.37426,0 h 1.18713 v 1.18712 h -1.18713 z m 27.30405,-1.18712 h 1.18713 v 1.18712 h -1.18713 z m -1.18714,0 h 1.18714 v 1.18712 h -1.18714 z m -2.37425,0 h 1.18712 v 1.18712 h -1.18712 z m -3.56141,0 h 1.18713 v 1.18712 h -1.18713 z m -1.18713,0 h 1.18713 v 1.18712 h -1.18713 z m -3.5614,0 h 1.18714 v 1.18712 h -1.18714 z m -1.18713,0 h 1.18713 v 1.18712 h -1.18713 z m -3.5614,0 h 1.18713 v 1.18712 h -1.18713 z m -2.37427,0 h 1.18714 v 1.18712 h -1.18714 z m -1.18713,0 h 1.18713 v 1.18712 h -1.18713 z m -4.74853,0 h 1.18714 v 1.18712 h -1.18714 z m -1.18713,0 h 1.18713 v 1.18712 h -1.18713 z m 27.30405,-1.18714 h 1.18713 v 1.18714 h -1.18713 z m -4.74852,0 h 1.18712 v 1.18714 h -1.18712 z m -1.18715,0 h 1.18715 v 1.18714 h -1.18715 z m -1.18713,0 h 1.18713 v 1.18714 h -1.18713 z m -2.37426,0 h 1.18713 v 1.18714 h -1.18713 z m -1.18713,0 h 1.18713 v 1.18714 h -1.18713 z m -1.18713,0 h 1.18713 v 1.18714 h -1.18713 z m -1.18714,0 h 1.18714 v 1.18714 h -1.18714 z m -2.37426,0 h 1.18713 v 1.18714 h -1.18713 z m -2.37427,0 h 1.18713 v 1.18714 h -1.18713 z m -1.18713,0 h 1.18713 v 1.18714 h -1.18713 z m -3.56139,0 h 1.18712 v 1.18714 h -1.18712 z m -1.18714,0 h 1.18714 v 1.18714 h -1.18714 z m -3.5614,0 h 1.18713 v 1.18714 h -1.18713 z m 27.30405,-1.18711 h 1.18713 v 1.18711 h -1.18713 z m -1.18713,0 h 1.18713 v 1.18711 h -1.18713 z m -1.18714,0 h 1.18714 v 1.18711 h -1.18714 z m -2.37425,0 h 1.18712 v 1.18711 h -1.18712 z m -1.18715,0 h 1.18715 v 1.18711 h -1.18715 z m -1.18713,0 h 1.18713 v 1.18711 h -1.18713 z m -1.18713,0 h 1.18713 v 1.18711 h -1.18713 z m -2.37426,0 h 1.18713 v 1.18711 h -1.18713 z m -1.18713,0 h 1.18713 v 1.18711 h -1.18713 z m -1.18714,0 h 1.18714 v 1.18711 h -1.18714 z m -2.37426,0 h 1.18713 v 1.18711 h -1.18713 z m -4.74854,0 h 1.18714 v 1.18711 h -1.18714 z m -1.18713,0 h 1.18713 v 1.18711 h -1.18713 z m -3.56139,0 h 1.18713 v 1.18711 h -1.18713 z m -1.18714,0 h 1.18714 v 1.18711 h -1.18714 z m -1.18713,0 h 1.18713 v 1.18711 h -1.18713 z m 24.92978,-1.18713 h 1.18714 v 1.18713 h -1.18714 z m -1.18713,0 h 1.18713 v 1.18713 h -1.18713 z m -2.37427,0 h 1.18715 v 1.18713 h -1.18715 z m -1.18713,0 h 1.18713 v 1.18713 h -1.18713 z m -5.93566,0 h 1.18714 v 1.18713 h -1.18714 z m -2.37426,0 h 1.18713 v 1.18713 h -1.18713 z m -3.5614,0 h 1.18713 v 1.18713 h -1.18713 z m -1.18714,0 h 1.18714 v 1.18713 h -1.18714 z m -2.37425,0 h 1.18712 v 1.18713 h -1.18712 z m -1.18714,0 h 1.18714 v 1.18713 h -1.18714 z m -2.37427,0 h 1.18714 v 1.18713 h -1.18714 z m -1.18713,0 h 1.18713 v 1.18713 h -1.18713 z m 22.55553,-1.18714 h 1.18712 v 1.18714 h -1.18712 z m -1.18715,0 h 1.18715 v 1.18714 h -1.18715 z m -3.56139,0 h 1.18713 v 1.18714 h -1.18713 z m -3.5614,0 h 1.18714 v 1.18714 h -1.18714 z m -1.18713,0 h 1.18713 v 1.18714 h -1.18713 z m -4.74853,0 h 1.18713 v 1.18714 h -1.18713 z m -1.18714,0 h 1.18714 v 1.18714 h -1.18714 z m -1.18713,0 h 1.18713 v 1.18714 h -1.18713 z m -1.18712,0 h 1.18712 v 1.18714 h -1.18712 z m -3.56141,0 h 1.18714 v 1.18714 h -1.18714 z m 24.92979,-1.18712 h 1.18713 v 1.18712 h -1.18713 z m -4.74854,0 h 1.18715 v 1.18712 h -1.18715 z m -2.37426,0 h 1.18713 v 1.18712 h -1.18713 z m -4.74853,0 h 1.18714 v 1.18712 h -1.18714 z m -3.5614,0 h 1.18714 v 1.18712 h -1.18714 z m -2.37426,0 h 1.18713 v 1.18712 h -1.18713 z m -1.18714,0 h 1.18714 v 1.18712 h -1.18714 z m -3.56139,0 h 1.18714 v 1.18712 h -1.18714 z m -2.37427,0 h 1.18714 v 1.18712 h -1.18714 z m -2.37426,0 h 1.18713 v 1.18712 h -1.18713 z m 28.49118,-1.18712 h 1.18713 v 1.18712 h -1.18713 z m -1.18713,0 h 1.18713 v 1.18712 h -1.18713 z m -2.37427,0 h 1.18713 v 1.18712 h -1.18713 z m -3.5614,0 h 1.18713 v 1.18712 h -1.18713 z m -2.37426,0 h 1.18713 v 1.18712 h -1.18713 z m -1.18713,0 h 1.18713 v 1.18712 h -1.18713 z m -4.74853,0 h 1.18713 v 1.18712 h -1.18713 z m -1.18714,0 h 1.18714 v 1.18712 h -1.18714 z m -3.5614,0 h 1.18714 v 1.18712 h -1.18714 z m -1.18713,0 h 1.18713 v 1.18712 h -1.18713 z m -1.18712,0 h 1.18712 v 1.18712 h -1.18712 z m -2.37427,0 h 1.18713 v 1.18712 h -1.18713 z m -1.18714,0 h 1.18714 v 1.18712 h -1.18714 z m -2.37426,0 h 1.18713 v 1.18712 h -1.18713 z m 18.99412,-1.18712 h 1.18713 v 1.18712 h -1.18713 z m -1.18713,0 h 1.18713 v 1.18712 h -1.18713 z m -3.5614,0 h 1.18713 v 1.18712 h -1.18713 z m -3.5614,0 h 1.18713 v 1.18712 h -1.18713 z m -1.18713,0 h 1.18713 v 1.18712 h -1.18713 z m 9.49706,-1.18713 h 1.18713 v 1.18713 h -1.18713 z m -2.37426,0 h 1.18713 v 1.18713 h -1.18713 z m -2.37427,0 h 1.18713 v 1.18713 h -1.18713 z m -2.37427,0 h 1.18714 v 1.18713 h -1.18714 z m -2.37426,0 h 1.18713 v 1.18713 h -1.18713 z m 5.93566,-1.18712 h 1.18714 v 1.18712 h -1.18714 z m -3.5614,0 h 1.18714 v 1.18712 h -1.18714 z m 7.1228,-1.18714 h 1.18713 v 1.18714 h -1.18713 z m -1.18713,0 h 1.18713 v 1.18714 h -1.18713 z m -2.37427,0 h 1.18714 v 1.18714 h -1.18714 z m -2.37426,0 h 1.18713 v 1.18714 h -1.18713 z m 2.37426,-1.18712 h 1.18714 v 1.18712 h -1.18714 z m -4.74853,0 h 1.18713 v 1.18712 h -1.18713 z m -1.18713,0 h 1.18713 v 1.18712 h -1.18713 z m 9.49706,-1.18714 h 1.18713 v 1.18714 h -1.18713 z m -2.37426,0 h 1.18713 v 1.18714 h -1.18713 z m -1.18714,0 h 1.18714 v 1.18714 h -1.18714 z m -1.18713,0 h 1.18713 v 1.18714 h -1.18713 z m -1.18713,0 h 1.18713 v 1.18714 h -1.18713 z m 2.37426,-1.18713 h 1.18714 v 1.18713 h -1.18714 z m -2.37426,0 h 1.18713 v 1.18713 h -1.18713 z m -3.5614,0 h 1.18713 v 1.18713 h -1.18713 z m 9.49706,-1.18713 h 1.18713 v 1.18713 h -1.18713 z m -2.37426,0 h 1.18713 v 1.18713 h -1.18713 z m -2.37427,0 h 1.18713 v 1.18713 h -1.18713 z m -1.18713,0 h 1.18713 v 1.18713 h -1.18713 z m -1.18714,0 h 1.18714 v 1.18713 h -1.18714 z m -2.37426,0 h 1.18713 v 1.18713 h -1.18713 z" />
    <g
       id="g901"
       transform="translate(-0.10601679)">
      <path
         sodipodi:nodetypes="ccccccccc"
         inkscape:connector-curvature="0"
         d="M 0.09558745,282.43796 V 131.56231 c 0,-7.98961 6.46304005,-14.46646 14.43558955,-14.46646 H 165.46882 c 7.97256,0 14.43559,6.47686 14.43559,14.46646 v 150.87565 c 0,7.98961 -6.46304,14.46645 -14.43559,14.46645 H 14.531177 c -7.9725495,0 -14.43558955,-6.47684 -14.43558955,-14.46645 z"
         style="fill:none;fill-opacity:1;stroke:#000000;stroke-width:0.19117491px;stroke-linecap:butt;stroke-linejoin:miter;stroke-opacity:1"
         id="path4684" />
      <circle
         r="3.2"
         cy="131.56232"
         cx="14.531177"
         id="path851"
         style="opacity:0.97100004;vector-effect:none;fill:none;fill-opacity:1;stroke:#0c0000;stroke-width:0.26458332;stroke-linecap:butt;stroke-linejoin:miter;stroke-miterlimit:4;stroke-dasharray:none;stroke-dashoffset:0;stroke-opacity:1" />
      <circle
         r="3.2"
         cy="131.56232"
         cx="165.46883"
         id="path851-4"
         style="opacity:0.97100004;vector-effect:none;fill:none;fill-opacity:1;stroke:#0c0000;stroke-width:0.26458332;stroke-linecap:butt;stroke-linejoin:miter;stroke-miterlimit:4;stroke-dasharray:none;stroke-dashoffset:0;stroke-opacity:1" />
      <circle
         r="3.2"
         cy="282.43796"
         cx="165.46883"
         id="path851-9"
         style="opacity:0.97100004;vector-effect:none;fill:none;fill-opacity:1;stroke:#0c0000;stroke-width:0.26458332;stroke-linecap:butt;stroke-linejoin:miter;stroke-miterlimit:4;stroke-dasharray:none;stroke-dashoffset:0;stroke-opacity:1" />
      <circle
         r="3.2"
         cy="282.43796"
         cx="14.531177"
         id="path851-1"
         style="opacity:0.97100004;vector-effect:none;fill:none;fill-opacity:1;stroke:#0c0000;stroke-width:0.26458332;stroke-linecap:butt;stroke-linejoin:miter;stroke-miterlimit:4;stroke-dasharray:none;stroke-dashoffset:0;stroke-opacity:1" />
    </g>
    <flowRoot
       xml:space="preserve"
       id="flowRoot2241"
       style="fill:black;fill-opacity:1;stroke:none;font-family:Bahnschrift;font-style:normal;font-weight:normal;font-size:40px;line-height:1.25;letter-spacing:0px;word-spacing:0px;-inkscape-font-specification:Bahnschrift;font-stretch:normal;font-variant:normal"><flowRegion
         id="flowRegion2243"><rect
           id="rect2245"
           width="372.17175"
           height="50.423271"
           x="445.00537"
           y="684.71765" /></flowRegion><flowPara
         id="flowPara2247" /></flowRoot>    <g
       transform="translate(451.15638,111.23506)"
       aria-label="50°48'32.3&quot;N 6°15'50.6&quot;E"
       style="font-style:normal;font-variant:normal;font-weight:normal;font-stretch:normal;font-size:10.58333302px;line-height:1.25;font-family:Bahnschrift;-inkscape-font-specification:Bahnschrift;letter-spacing:0px;word-spacing:0px;fill:#ff0000;fill-opacity:1;stroke:none;stroke-width:0.26458332"
       id="text2109">
      <path
         inkscape:connector-curvature="0"
         style="fill:#ff0000;fill-opacity:1;stroke:none;stroke-width:0.99999994"
         d="m -1525.1367,432.02148 v 14.96094 h 3.6328 c 0.4818,-0.70312 1.0417,-1.25 1.6797,-1.64062 0.638,-0.39063 1.3021,-0.58594 1.9922,-0.58594 1.276,0 2.2591,0.42967 2.9492,1.28906 0.7031,0.84634 1.0547,2.03777 1.0547,3.57422 v 2.38281 c 0,1.54948 -0.3516,2.75392 -1.0547,3.61328 -0.6901,0.84637 -1.6732,1.26954 -2.9492,1.26954 -1.1068,0 -2.0053,-0.28645 -2.6953,-0.85938 -0.6903,-0.58593 -1.1069,-1.39974 -1.25,-2.44141 v -0.0176 h -3.9844 v 0.0176 c 0.2344,1.49738 0.6966,2.77994 1.3867,3.84766 0.7031,1.06772 1.6081,1.88151 2.7148,2.44141 1.1198,0.5599 2.3959,0.83984 3.8282,0.83984 1.6797,0 3.1185,-0.33853 4.3164,-1.01562 1.1979,-0.69012 2.1093,-1.68621 2.7344,-2.98829 0.625,-1.30209 0.9374,-2.87111 0.9374,-4.70703 v -2.38281 c 0,-1.83592 -0.3059,-3.40493 -0.9179,-4.70703 -0.599,-1.30207 -1.4844,-2.29166 -2.6563,-2.96875 -1.1588,-0.67709 -2.5586,-1.01563 -4.1992,-1.01563 -0.638,0 -1.263,0.11056 -1.875,0.33204 -0.612,0.22135 -1.1654,0.53384 -1.6601,0.9375 v -6.38672 h 10.4882 v -3.78907 z"
         transform="scale(0.26458333)"
         id="path5157" />
      <path
         inkscape:connector-curvature="0"
         style="fill:#ff0000;fill-opacity:1;stroke:none;stroke-width:0.99999994"
         d="m -1495.8594,431.66992 c -2.6432,0 -4.6549,0.70965 -6.0351,2.12891 -1.3802,1.40626 -2.0703,3.38541 -2.0703,5.9375 v 12.91015 c 0,2.53907 0.6836,4.51824 2.0507,5.9375 1.3802,1.41929 3.3985,2.12891 6.0547,2.12891 2.6433,0 4.655,-0.70311 6.0352,-2.10937 1.3802,-1.41927 2.0703,-3.40495 2.0703,-5.95704 v -12.91015 c 0,-2.56512 -0.6901,-4.5508 -2.0703,-5.95703 -1.3672,-1.40626 -3.3789,-2.10938 -6.0352,-2.10938 z m 0,3.78906 c 1.4193,0 2.461,0.37109 3.125,1.11329 0.6641,0.72917 0.9961,1.78385 0.9961,3.16406 v 12.91015 c 0,1.38021 -0.3385,2.44142 -1.0156,3.1836 -0.6641,0.72917 -1.6992,1.09375 -3.1055,1.09375 -1.4062,0 -2.4479,-0.36458 -3.125,-1.09375 -0.664,-0.74218 -0.9961,-1.80339 -0.9961,-3.1836 v -12.91015 c 0,-1.38021 0.3321,-2.43489 0.9961,-3.16406 0.6641,-0.7422 1.7058,-1.11329 3.125,-1.11329 z"
         transform="scale(0.26458333)"
         id="path5159" />
      <path
         inkscape:connector-curvature="0"
         style="fill:#ff0000;fill-opacity:1;stroke:none;stroke-width:0.99999994"
         d="m -1477.5,431.72852 c -1.8229,0 -3.2357,0.5078 -4.2383,1.52343 -0.9896,1.01564 -1.4844,2.44793 -1.4844,4.29688 0,1.83594 0.4948,3.26824 1.4844,4.29687 1.0026,1.01564 2.4154,1.52344 4.2383,1.52344 1.8099,0 3.2161,-0.5078 4.2188,-1.52344 1.0025,-1.01561 1.5039,-2.4414 1.5039,-4.27734 0,-1.86197 -0.4948,-3.30077 -1.4844,-4.31641 -0.9896,-1.01563 -2.4024,-1.52343 -4.2383,-1.52343 z m -0.02,3.125 c 0.7682,0 1.3672,0.23438 1.7968,0.70312 0.4297,0.45574 0.6446,1.10676 0.6446,1.95313 0,0.88541 -0.2149,1.56901 -0.6446,2.05078 -0.4166,0.46873 -1.0156,0.70312 -1.7968,0.70312 -0.7683,0 -1.3607,-0.23439 -1.7774,-0.70312 -0.4166,-0.46877 -0.625,-1.13933 -0.625,-2.01172 0,-0.87239 0.2084,-1.53645 0.625,-1.99219 0.4167,-0.46874 1.0091,-0.70312 1.7774,-0.70312 z"
         transform="scale(0.26458333)"
         id="path5161" />
      <path
         inkscape:connector-curvature="0"
         style="fill:#ff0000;fill-opacity:1;stroke:none;stroke-width:0.99999994"
         d="m -1458.1055,432.04102 -9.5312,20.5664 v 3.45703 h 12.2461 v 4.375 h 3.8867 v -4.375 h 2.1289 v -3.6914 h -2.1289 v -8.65235 h -3.8867 v 8.65235 h -7.9102 l 9.2969,-20.33203 z"
         transform="scale(0.26458333)"
         id="path5163" />
      <path
         inkscape:connector-curvature="0"
         style="fill:#ff0000;fill-opacity:1;stroke:none;stroke-width:0.99999994"
         d="m -1436.1914,431.72852 c -1.6016,0 -3.0078,0.31249 -4.2188,0.9375 -1.2109,0.61198 -2.1484,1.48438 -2.8125,2.61718 -0.664,1.1198 -0.9961,2.42188 -0.9961,3.90625 v 0.6836 c 0,1.14582 0.2995,2.23958 0.8985,3.28125 0.612,1.02866 1.4193,1.81641 2.4219,2.36328 -1.1849,0.63801 -2.1355,1.58201 -2.8516,2.83203 -0.7031,1.24999 -1.0547,2.58464 -1.0547,4.00391 v 0.46875 c 0,1.5755 0.3516,2.96222 1.0547,4.16015 0.7161,1.18488 1.7252,2.10287 3.0273,2.75391 1.3021,0.65106 2.8125,0.97656 4.5313,0.97656 1.7187,0 3.2292,-0.3255 4.5312,-0.97656 1.3021,-0.65104 2.3047,-1.56903 3.0079,-2.75391 0.7161,-1.19793 1.0742,-2.58465 1.0742,-4.16015 v -0.46875 c 0,-1.41927 -0.3646,-2.74742 -1.0938,-3.98438 -0.7161,-1.25002 -1.6732,-2.20053 -2.8711,-2.85156 1.0156,-0.53385 1.8295,-1.31509 2.4414,-2.34375 0.625,-1.02864 0.9375,-2.1289 0.9375,-3.30078 v -0.6836 c 0,-1.48437 -0.332,-2.78645 -0.9961,-3.90625 -0.664,-1.1328 -1.6015,-2.0052 -2.8125,-2.61718 -1.2109,-0.62501 -2.6171,-0.9375 -4.2187,-0.9375 z m 0,3.82812 c 0.7943,0 1.4974,0.16927 2.1094,0.50781 0.6119,0.32552 1.0872,0.79427 1.4258,1.40625 0.3385,0.61198 0.5078,1.3151 0.5078,2.10938 v 0.27344 c 0,0.83333 -0.1693,1.56899 -0.5078,2.20703 -0.3386,0.63801 -0.8139,1.1328 -1.4258,1.48437 -0.612,0.33855 -1.3151,0.50781 -2.1094,0.50781 -0.7943,0 -1.4974,-0.16926 -2.1094,-0.50781 -0.612,-0.35157 -1.0872,-0.83983 -1.4258,-1.46484 -0.3385,-0.63801 -0.5078,-1.36719 -0.5078,-2.1875 v -0.29297 c 0,-0.80728 0.1693,-1.51693 0.5078,-2.12891 0.3386,-0.61198 0.8138,-1.08073 1.4258,-1.40625 0.612,-0.33854 1.3151,-0.50781 2.1094,-0.50781 z m 0,12.32422 c 0.9245,0 1.7383,0.18228 2.4414,0.54687 0.7031,0.36458 1.2435,0.87891 1.6211,1.54297 0.3906,0.65104 0.5859,1.41274 0.5859,2.28516 v 0.27344 c 0,0.85939 -0.1953,1.62109 -0.5859,2.28515 -0.3776,0.65104 -0.918,1.15887 -1.6211,1.52344 -0.7031,0.3646 -1.5169,0.54688 -2.4414,0.54688 -0.9245,0 -1.7383,-0.17578 -2.4414,-0.52735 -0.7031,-0.36457 -1.25,-0.8724 -1.6406,-1.52344 -0.3776,-0.65106 -0.5664,-1.40626 -0.5664,-2.26562 v -0.29297 c 0,-0.87239 0.1888,-1.64062 0.5664,-2.30469 0.3906,-0.66406 0.9375,-1.17839 1.6406,-1.54297 0.7031,-0.36459 1.5169,-0.54687 2.4414,-0.54687 z"
         transform="scale(0.26458333)"
         id="path5165" />
      <path
         inkscape:connector-curvature="0"
         style="fill:#ff0000;fill-opacity:1;stroke:none;stroke-width:0.99999994"
         d="m -1423.3789,432.02148 v 9.96094 h 3.9844 v -9.96094 z"
         transform="scale(0.26458333)"
         id="path5167" />
      <path
         inkscape:connector-curvature="0"
         style="fill:#ff0000;fill-opacity:1;stroke:none;stroke-width:0.99999994"
         d="m -1407.5781,431.72852 c -1.4323,0 -2.7018,0.28644 -3.8086,0.85937 -1.1068,0.57293 -2.0248,1.41276 -2.7539,2.51953 -0.7162,1.10677 -1.2045,2.43492 -1.4649,3.98438 h 4.043 c 0.1693,-0.79426 0.4362,-1.45182 0.8008,-1.97266 0.3776,-0.53382 0.8333,-0.92444 1.3672,-1.17187 0.5338,-0.26041 1.1393,-0.39063 1.8164,-0.39063 1.1849,0 2.0963,0.30599 2.7343,0.91797 0.6511,0.61198 0.9766,1.47786 0.9766,2.59766 v 0.8789 c 0,1.21094 -0.306,2.14844 -0.918,2.8125 -0.6119,0.66406 -1.4713,0.9961 -2.5781,0.9961 h -2.0117 v 3.78906 h 2.0117 c 1.263,0 2.2396,0.39062 2.9297,1.17187 0.6901,0.76823 1.0352,1.86196 1.0352,3.28125 v 0.85938 c 0,1.27604 -0.3646,2.26563 -1.0938,2.96875 -0.7292,0.70314 -1.7513,1.05469 -3.0664,1.05469 -0.8333,0 -1.5625,-0.12367 -2.1875,-0.3711 -0.612,-0.26041 -1.1133,-0.65103 -1.5039,-1.17187 -0.3907,-0.52082 -0.6446,-1.18488 -0.7617,-1.99219 h -4.0625 c 0.1953,1.54948 0.6575,2.8776 1.3867,3.98437 0.7422,1.09377 1.7188,1.93361 2.9297,2.51954 1.2109,0.57292 2.6106,0.85937 4.1992,0.85937 1.7187,0 3.1836,-0.30599 4.3945,-0.91797 1.224,-0.61198 2.155,-1.5039 2.793,-2.67578 0.638,-1.17188 0.957,-2.58464 0.957,-4.23828 v -0.46875 c 0,-1.83594 -0.4297,-3.34634 -1.289,-4.53125 -0.8464,-1.18488 -2.0443,-1.94661 -3.5938,-2.28516 1.4063,-0.48176 2.4935,-1.24999 3.2617,-2.30468 0.7683,-1.05469 1.1524,-2.29168 1.1524,-3.71094 v -0.46875 c 0,-2.34374 -0.6706,-4.16015 -2.0117,-5.44922 -1.3412,-1.28907 -3.2357,-1.93359 -5.6836,-1.93359 z"
         transform="scale(0.26458333)"
         id="path5169" />
      <path
         inkscape:connector-curvature="0"
         style="fill:#ff0000;fill-opacity:1;stroke:none;stroke-width:0.99999994"
         d="m -1386.3086,431.72852 c -1.4974,0 -2.819,0.30598 -3.9648,0.91796 -1.1459,0.59896 -2.0834,1.47787 -2.8125,2.63672 -0.7162,1.14586 -1.1915,2.53257 -1.4258,4.16016 v 0.0195 h 4.1211 v -0.0195 c 0.1562,-1.24999 0.5924,-2.21354 1.3086,-2.89063 0.7161,-0.69009 1.6536,-1.03515 2.8125,-1.03515 1.2239,0 2.1679,0.31252 2.832,0.9375 0.6641,0.62501 0.9961,1.50392 0.9961,2.63672 v 0.0391 c 0,0.70312 -0.1627,1.46485 -0.4883,2.28516 -0.3125,0.8073 -0.7552,1.58855 -1.3281,2.34375 l -9.9024,13.20312 v 3.45703 h 16.0157 v -3.78906 h -10.7422 l 8.2226,-11.17188 c 0.7422,-1.01563 1.3217,-2.07031 1.7383,-3.16406 0.4167,-1.09374 0.625,-2.14192 0.625,-3.14453 v -0.0195 c 0,-1.56251 -0.3125,-2.89714 -0.9375,-4.00391 -0.625,-1.10677 -1.5364,-1.94663 -2.7344,-2.51953 -1.1979,-0.58595 -2.6432,-0.8789 -4.3359,-0.8789 z"
         transform="scale(0.26458333)"
         id="path5171" />
      <path
         inkscape:connector-curvature="0"
         style="fill:#ff0000;fill-opacity:1;stroke:none;stroke-width:0.99999994"
         d="m -1373.5156,456.24023 v 4.17969 h 4.1797 v -4.17969 z"
         transform="scale(0.26458333)"
         id="path5173" />
      <path
         inkscape:connector-curvature="0"
         style="fill:#ff0000;fill-opacity:1;stroke:none;stroke-width:0.99999994"
         d="m -1356.6406,431.72852 c -1.4323,0 -2.7018,0.28644 -3.8086,0.85937 -1.1068,0.57293 -2.0248,1.41276 -2.7539,2.51953 -0.7162,1.10677 -1.2045,2.43492 -1.4649,3.98438 h 4.043 c 0.1693,-0.79426 0.4362,-1.45182 0.8008,-1.97266 0.3776,-0.53382 0.8333,-0.92444 1.3672,-1.17187 0.5338,-0.26041 1.1393,-0.39063 1.8164,-0.39063 1.1849,0 2.0963,0.30599 2.7344,0.91797 0.651,0.61198 0.9765,1.47786 0.9765,2.59766 v 0.8789 c 0,1.21094 -0.306,2.14844 -0.918,2.8125 -0.6119,0.66406 -1.4713,0.9961 -2.5781,0.9961 h -2.0117 v 3.78906 h 2.0117 c 1.263,0 2.2396,0.39062 2.9297,1.17187 0.6901,0.76823 1.0352,1.86196 1.0352,3.28125 v 0.85938 c 0,1.27604 -0.3646,2.26563 -1.0938,2.96875 -0.7292,0.70314 -1.7513,1.05469 -3.0664,1.05469 -0.8333,0 -1.5625,-0.12367 -2.1875,-0.3711 -0.612,-0.26041 -1.1133,-0.65103 -1.5039,-1.17187 -0.3907,-0.52082 -0.6446,-1.18488 -0.7617,-1.99219 h -4.0625 c 0.1953,1.54948 0.6575,2.8776 1.3867,3.98437 0.7422,1.09377 1.7188,1.93361 2.9297,2.51954 1.2109,0.57292 2.6106,0.85937 4.1992,0.85937 1.7188,0 3.1836,-0.30599 4.3945,-0.91797 1.224,-0.61198 2.155,-1.5039 2.793,-2.67578 0.638,-1.17188 0.957,-2.58464 0.957,-4.23828 v -0.46875 c 0,-1.83594 -0.4297,-3.34634 -1.289,-4.53125 -0.8464,-1.18488 -2.0443,-1.94661 -3.5938,-2.28516 1.4063,-0.48176 2.4935,-1.24999 3.2617,-2.30468 0.7683,-1.05469 1.1524,-2.29168 1.1524,-3.71094 v -0.46875 c 0,-2.34374 -0.6706,-4.16015 -2.0117,-5.44922 -1.3412,-1.28907 -3.2357,-1.93359 -5.6836,-1.93359 z"
         transform="scale(0.26458333)"
         id="path5175" />
      <path
         inkscape:connector-curvature="0"
         style="fill:#ff0000;fill-opacity:1;stroke:none;stroke-width:0.99999994"
         d="m -1343.1836,432.02148 v 9.96094 h 3.9844 v -9.96094 z m 6.0742,0 v 9.96094 h 3.9844 v -9.96094 z"
         transform="scale(0.26458333)"
         id="path5177" />
      <path
         inkscape:connector-curvature="0"
         style="fill:#ff0000;fill-opacity:1;stroke:none;stroke-width:0.99999994"
         d="m -1327.0508,432.02148 v 28.37891 h 3.9453 v -20.88867 l 13.3789,20.88867 h 3.6524 v -28.37891 h -3.9453 v 21.2129 l -13.418,-21.2129 z"
         transform="scale(0.26458333)"
         id="path5179" />
      <path
         inkscape:connector-curvature="0"
         style="fill:#ff0000;fill-opacity:1;stroke:none;stroke-width:0.99999994"
         d="m -1281.25,432.02344 -6.1719,12.22656 c -0.091,0.18232 -0.1822,0.37113 -0.2734,0.56641 -0.091,0.18235 -0.1758,0.37113 -0.2539,0.5664 -0.4687,1.11978 -0.8268,2.25912 -1.0742,3.41797 -0.2475,1.15885 -0.3711,2.26562 -0.3711,3.32031 v 0.0176 c 0,1.80989 0.306,3.35937 0.9179,4.64844 0.625,1.27604 1.53,2.2526 2.7149,2.92969 1.1849,0.66406 2.6107,0.99609 4.2773,0.99609 1.6667,0 3.0925,-0.33853 4.2774,-1.01562 1.1979,-0.67709 2.1028,-1.66668 2.7148,-2.96875 0.625,-1.3021 0.9375,-2.86459 0.9375,-4.6875 v -0.0176 c 0,-1.78384 -0.2734,-3.3073 -0.8203,-4.57032 -0.5469,-1.27604 -1.3477,-2.24609 -2.4023,-2.91015 -1.0547,-0.66406 -2.3177,-0.9961 -3.7891,-0.99609 -0.8333,0 -1.5625,0.16926 -2.1875,0.50781 -0.1977,0.10705 -0.3753,0.23279 -0.543,0.36719 l 6.3438,-12.39844 z m -0.4297,15.35156 c 1.3281,0 2.3503,0.4362 3.0664,1.30859 0.7162,0.85937 1.0742,2.08334 1.0742,3.67188 v 0.0176 c 0,1.44531 -0.345,2.55859 -1.0351,3.33984 -0.6771,0.78125 -1.6472,1.17188 -2.9102,1.17188 -1.25,0 -2.22,-0.38412 -2.9101,-1.15235 -0.6771,-0.78125 -1.0157,-1.89453 -1.0157,-3.33984 v -0.0176 c 0,-1.58854 0.3256,-2.81902 0.9766,-3.69141 0.651,-0.87239 1.569,-1.30859 2.7539,-1.30859 z"
         transform="scale(0.26458333)"
         id="path5181" />
      <path
         inkscape:connector-curvature="0"
         style="fill:#ff0000;fill-opacity:1;stroke:none;stroke-width:0.99999994"
         d="m -1263.9062,431.72852 c -1.823,0 -3.2357,0.5078 -4.2383,1.52343 -0.9896,1.01564 -1.4844,2.44793 -1.4844,4.29688 0,1.83594 0.4948,3.26824 1.4844,4.29687 1.0026,1.01564 2.4153,1.52344 4.2383,1.52344 1.8098,0 3.2161,-0.5078 4.2187,-1.52344 1.0026,-1.01561 1.5039,-2.4414 1.5039,-4.27734 0,-1.86197 -0.4948,-3.30077 -1.4844,-4.31641 -0.9895,-1.01563 -2.4023,-1.52343 -4.2382,-1.52343 z m -0.02,3.125 c 0.7682,0 1.3672,0.23438 1.7969,0.70312 0.4297,0.45574 0.6445,1.10676 0.6445,1.95313 0,0.88541 -0.2148,1.56901 -0.6445,2.05078 -0.4167,0.46873 -1.0156,0.70312 -1.7969,0.70312 -0.7682,0 -1.3606,-0.23439 -1.7773,-0.70312 -0.4167,-0.46877 -0.625,-1.13933 -0.625,-2.01172 0,-0.87239 0.2083,-1.53645 0.625,-1.99219 0.4167,-0.46874 1.0091,-0.70312 1.7773,-0.70312 z"
         transform="scale(0.26458333)"
         id="path5183" />
      <path
         inkscape:connector-curvature="0"
         style="fill:#ff0000;fill-opacity:1;stroke:none;stroke-width:0.99999994"
         d="m -1250.7812,432.02148 -4.043,2.69532 v 4.12109 l 4.043,-2.48047 v 24.0625 h 3.9843 v -28.39844 z"
         transform="scale(0.26458333)"
         id="path5185" />
      <path
         inkscape:connector-curvature="0"
         style="fill:#ff0000;fill-opacity:1;stroke:none;stroke-width:0.99999994"
         d="m -1239.7461,432.02148 v 14.96094 h 3.6328 c 0.4818,-0.70312 1.0417,-1.25 1.6797,-1.64062 0.638,-0.39063 1.3021,-0.58594 1.9922,-0.58594 1.276,0 2.2591,0.42967 2.9492,1.28906 0.7032,0.84634 1.0547,2.03777 1.0547,3.57422 v 2.38281 c 0,1.54948 -0.3515,2.75392 -1.0547,3.61328 -0.6901,0.84637 -1.6732,1.26954 -2.9492,1.26954 -1.1068,0 -2.0052,-0.28645 -2.6953,-0.85938 -0.6902,-0.58593 -1.1069,-1.39974 -1.25,-2.44141 v -0.0176 h -3.9844 v 0.0176 c 0.2344,1.49738 0.6966,2.77994 1.3867,3.84766 0.7031,1.06772 1.6081,1.88151 2.7149,2.44141 1.1198,0.5599 2.3958,0.83984 3.8281,0.83984 1.6797,0 3.1185,-0.33853 4.3164,-1.01562 1.1979,-0.69012 2.1094,-1.68621 2.7344,-2.98829 0.625,-1.30209 0.9375,-2.87111 0.9375,-4.70703 v -2.38281 c 0,-1.83592 -0.306,-3.40493 -0.918,-4.70703 -0.599,-1.30207 -1.4844,-2.29166 -2.6562,-2.96875 -1.1589,-0.67709 -2.5586,-1.01563 -4.1993,-1.01563 -0.638,0 -1.263,0.11056 -1.875,0.33204 -0.6119,0.22135 -1.1653,0.53384 -1.6601,0.9375 v -6.38672 h 10.4883 v -3.78907 z"
         transform="scale(0.26458333)"
         id="path5187" />
      <path
         inkscape:connector-curvature="0"
         style="fill:#ff0000;fill-opacity:1;stroke:none;stroke-width:0.99999994"
         d="m -1219.9414,432.02148 v 9.96094 h 3.9844 v -9.96094 z"
         transform="scale(0.26458333)"
         id="path5189" />
      <path
         inkscape:connector-curvature="0"
         style="fill:#ff0000;fill-opacity:1;stroke:none;stroke-width:0.99999994"
         d="m -1210.8398,432.02148 v 14.96094 h 3.6328 c 0.4817,-0.70312 1.0416,-1.25 1.6797,-1.64062 0.638,-0.39063 1.302,-0.58594 1.9921,-0.58594 1.2761,0 2.2592,0.42967 2.9493,1.28906 0.7031,0.84634 1.0547,2.03777 1.0547,3.57422 v 2.38281 c 0,1.54948 -0.3516,2.75392 -1.0547,3.61328 -0.6901,0.84637 -1.6732,1.26954 -2.9493,1.26954 -1.1067,0 -2.0052,-0.28645 -2.6953,-0.85938 -0.6902,-0.58593 -1.1069,-1.39974 -1.25,-2.44141 v -0.0176 h -3.9843 v 0.0176 c 0.2343,1.49738 0.6966,2.77994 1.3867,3.84766 0.7031,1.06772 1.608,1.88151 2.7148,2.44141 1.1198,0.5599 2.3959,0.83984 3.8281,0.83984 1.6797,0 3.1185,-0.33853 4.3164,-1.01562 1.198,-0.69012 2.1094,-1.68621 2.7344,-2.98829 0.625,-1.30209 0.9375,-2.87111 0.9375,-4.70703 v -2.38281 c 0,-1.83592 -0.306,-3.40493 -0.9179,-4.70703 -0.599,-1.30207 -1.4844,-2.29166 -2.6563,-2.96875 -1.1588,-0.67709 -2.5586,-1.01563 -4.1992,-1.01563 -0.638,0 -1.263,0.11056 -1.875,0.33204 -0.612,0.22135 -1.1654,0.53384 -1.6602,0.9375 v -6.38672 h 10.4883 v -3.78907 z"
         transform="scale(0.26458333)"
         id="path5191" />
      <path
         inkscape:connector-curvature="0"
         style="fill:#ff0000;fill-opacity:1;stroke:none;stroke-width:0.99999994"
         d="m -1181.5625,431.66992 c -2.6432,0 -4.6549,0.70965 -6.0352,2.12891 -1.3802,1.40626 -2.0703,3.38541 -2.0703,5.9375 v 12.91015 c 0,2.53907 0.6836,4.51824 2.0508,5.9375 1.3802,1.41929 3.3985,2.12891 6.0547,2.12891 2.6433,0 4.6549,-0.70311 6.0352,-2.10937 1.3802,-1.41927 2.0703,-3.40495 2.0703,-5.95704 v -12.91015 c 0,-2.56512 -0.6901,-4.5508 -2.0703,-5.95703 -1.3673,-1.40626 -3.3789,-2.10938 -6.0352,-2.10938 z m 0,3.78906 c 1.4193,0 2.4609,0.37109 3.125,1.11329 0.6641,0.72917 0.9961,1.78385 0.9961,3.16406 v 12.91015 c 0,1.38021 -0.3385,2.44142 -1.0156,3.1836 -0.6641,0.72917 -1.6992,1.09375 -3.1055,1.09375 -1.4062,0 -2.4479,-0.36458 -3.125,-1.09375 -0.6641,-0.74218 -0.9961,-1.80339 -0.9961,-3.1836 v -12.91015 c 0,-1.38021 0.332,-2.43489 0.9961,-3.16406 0.6641,-0.7422 1.7057,-1.11329 3.125,-1.11329 z"
         transform="scale(0.26458333)"
         id="path5193" />
      <path
         inkscape:connector-curvature="0"
         d="m -309.35581,120.71377 h 1.10588 v 1.10587 h -1.10588 z"
         style="fill:#ff0000;fill-opacity:1;stroke:none;stroke-width:0.26458332"
         id="path5195" />
      <path
         inkscape:connector-curvature="0"
         style="fill:#ff0000;fill-opacity:1;stroke:none;stroke-width:0.99999994"
         d="m -1152.1094,432.02344 -6.1718,12.22656 c -0.091,0.18232 -0.1823,0.37113 -0.2735,0.56641 -0.091,0.18235 -0.1758,0.37113 -0.2539,0.5664 -0.4687,1.11978 -0.8268,2.25912 -1.0742,3.41797 -0.2474,1.15885 -0.3711,2.26562 -0.3711,3.32031 v 0.0176 c 0,1.80989 0.306,3.35937 0.918,4.64844 0.625,1.27604 1.5299,2.2526 2.7148,2.92969 1.1849,0.66406 2.6107,0.99609 4.2773,0.99609 1.6667,0 3.0925,-0.33853 4.2774,-1.01562 1.1979,-0.67709 2.1029,-1.66668 2.7148,-2.96875 0.625,-1.3021 0.9375,-2.86459 0.9375,-4.6875 v -0.0176 c 0,-1.78384 -0.2734,-3.3073 -0.8203,-4.57032 -0.5468,-1.27604 -1.3476,-2.24609 -2.4023,-2.91015 -1.0547,-0.66406 -2.3177,-0.9961 -3.7891,-0.99609 -0.8333,0 -1.5625,0.16926 -2.1875,0.50781 -0.1976,0.10705 -0.3753,0.23279 -0.5429,0.36719 l 6.3437,-12.39844 z m -0.4297,15.35156 c 1.3282,0 2.3503,0.4362 3.0664,1.30859 0.7162,0.85937 1.0743,2.08334 1.0743,3.67188 v 0.0176 c 0,1.44531 -0.3451,2.55859 -1.0352,3.33984 -0.6771,0.78125 -1.6471,1.17188 -2.9102,1.17188 -1.2499,0 -2.22,-0.38412 -2.9101,-1.15235 -0.6771,-0.78125 -1.0156,-1.89453 -1.0156,-3.33984 v -0.0176 c 0,-1.58854 0.3255,-2.81902 0.9765,-3.69141 0.6511,-0.87239 1.5691,-1.30859 2.7539,-1.30859 z"
         transform="scale(0.26458333)"
         id="path5197" />
      <path
         inkscape:connector-curvature="0"
         style="fill:#ff0000;fill-opacity:1;stroke:none;stroke-width:0.99999994"
         d="m -1139.5117,432.02148 v 9.96094 h 3.9844 v -9.96094 z m 6.0742,0 v 9.96094 h 3.9844 v -9.96094 z"
         transform="scale(0.26458333)"
         id="path5199" />
      <path
         inkscape:connector-curvature="0"
         style="fill:#ff0000;fill-opacity:1;stroke:none;stroke-width:0.99999994"
         d="m -1123.3789,432.02148 v 28.39844 h 1.9336 2.0508 14.2578 v -3.78906 h -14.2578 v -8.41797 h 12.1093 v -3.78906 h -12.1093 v -8.61328 h 14.2578 v -3.78907 h -14.2578 -2.0508 z"
         transform="scale(0.26458333)"
         id="path5201" />
    </g>
    <g
       transform="translate(451.15638,111.23506)"
       aria-label="///ursache.beim.markieren"
       style="font-style:normal;font-variant:normal;font-weight:normal;font-stretch:normal;font-size:5.64444447px;line-height:1.25;font-family:Bahnschrift;-inkscape-font-specification:Bahnschrift;letter-spacing:0px;word-spacing:0px;fill:#ff0000;fill-opacity:1;stroke:none;stroke-width:0.26458332"
       id="text2235">
      <path
         inkscape:connector-curvature="0"
         style="font-size:5.64444447px;fill:#ff0000;fill-opacity:1;stroke-width:0.99999994"
         d="m -1248.0371,481.90039 -7.0313,19.8125 h 2.0313 l 7.0312,-19.8125 z m 8.082,0 -7.0312,19.8125 h 2.0312 l 7.0313,-19.8125 z m 8.084,0 -7.0312,19.8125 h 2.0312 l 7.0313,-19.8125 z m 56.9063,1.79297 v 15.14453 h 2.125 v -6.875 c 0,-0.65973 0.1875,-1.17015 0.5625,-1.53125 0.3819,-0.36112 0.9207,-0.54101 1.6152,-0.54102 0.7153,10e-6 1.2702,0.20835 1.666,0.625 0.3958,0.41669 0.5938,1.0076 0.5938,1.77149 v 6.55078 h 2.125 v -6.5625 c 0,-1.40278 -0.3229,-2.48613 -0.9688,-3.25 -0.6389,-0.77085 -1.5452,-1.15625 -2.7187,-1.15625 -0.6528,0 -1.2513,0.17708 -1.793,0.53125 -0.4253,0.27616 -0.7841,0.64871 -1.082,1.10938 v -5.81641 z m 27.791,0 v 15.14453 h 2.125 v -1.39648 c 0.2325,0.44519 0.5489,0.80654 0.959,1.07421 0.5,0.31945 1.0861,0.47852 1.7597,0.47852 0.7847,0 1.459,-0.16948 2.0215,-0.50976 0.5625,-0.34722 0.9896,-0.84723 1.2813,-1.5 0.2916,-0.65278 0.4375,-1.43683 0.4375,-2.35352 v -2.35547 c 0,-0.93054 -0.1431,-1.72504 -0.4278,-2.38477 -0.2847,-0.65972 -0.7014,-1.15971 -1.25,-1.5 -0.5416,-0.34721 -1.1931,-0.52148 -1.957,-0.52148 -0.6459,0 -1.234,0.17427 -1.7617,0.52148 -0.4183,0.26971 -0.7707,0.63497 -1.0625,1.0879 v -5.78516 z m 23.084,0 v 2.125 h 2.125 v -2.125 z m 67.291,0 v 15.14453 h 2.125 v -3.0957 l 1.9062,-2.14453 3.168,5.24023 h 2.3125 l -4.1524,-6.73633 3.6211,-4.07617 h -2.5 l -4.3554,5.25391 v -9.58594 z m 11.2929,0 v 2.125 h 2.125 v -2.125 z m -158.6464,4.17383 c -0.9306,0 -1.7062,0.12781 -2.3243,0.38476 -0.618,0.24998 -1.082,0.62781 -1.3945,1.13477 -0.3125,0.50693 -0.4687,1.14236 -0.4687,1.90625 0,0.76389 0.159,1.35199 0.4785,1.76172 0.3264,0.4098 0.7326,0.69105 1.2187,0.84375 0.4861,0.14564 1.0799,0.24509 1.7813,0.30078 0.028,0 0.056,0.004 0.084,0.0117 h 0.082 c 0.056,0.008 0.1152,0.0159 0.1777,0.0234 h 0.1778 c 0.618,0.0486 1.0972,0.10352 1.4375,0.16601 0.3404,0.0557 0.6244,0.17014 0.8535,0.34375 0.2293,0.17361 0.3437,0.43401 0.3437,0.78125 0,0.52082 -0.2111,0.91385 -0.6347,1.17773 -0.4167,0.25696 -1.0445,0.38477 -1.8848,0.38477 -0.5625,0 -1.1326,-0.10979 -1.709,-0.33203 -0.5764,-0.22221 -1.1569,-0.55555 -1.7402,-1 l -1.2598,1.55078 c 0.4097,0.37503 0.8576,0.68755 1.3438,0.9375 0.4861,0.25003 1.0069,0.43752 1.5625,0.5625 0.5619,0.12485 1.1645,0.18737 1.8027,0.1875 1.013,-1.7e-4 1.8533,-0.128 2.5195,-0.38476 0.6736,-0.25696 1.1765,-0.63955 1.5098,-1.14649 0.3333,-0.51389 0.5,-1.15972 0.5,-1.9375 0,-0.85417 -0.1799,-1.50758 -0.541,-1.95898 -0.3611,-0.45146 -0.8091,-0.75161 -1.3438,-0.9043 -0.5278,-0.15269 -1.1708,-0.25411 -1.9277,-0.30273 -0.021,-0.008 -0.042,-0.0117 -0.062,-0.0117 h -0.062 c -0.049,-0.008 -0.096,-0.0117 -0.1445,-0.0117 -0.042,0 -0.083,-0.004 -0.125,-0.0117 -0.5764,-0.0348 -1.0215,-0.0764 -1.334,-0.125 -0.3125,-0.0486 -0.5729,-0.14513 -0.7813,-0.29102 -0.2013,-0.14584 -0.3027,-0.36459 -0.3027,-0.65625 0,-0.49297 0.1818,-0.86036 0.543,-1.10351 0.3611,-0.24996 0.9027,-0.375 1.625,-0.375 0.5,0 1.0104,0.0862 1.5312,0.25976 0.5278,0.17363 1.0619,0.43404 1.6035,0.78125 l 1.2813,-1.55273 c -0.4306,-0.31257 -0.8785,-0.56821 -1.3438,-0.76953 -0.4653,-0.20846 -0.9548,-0.36469 -1.4687,-0.46875 -0.507,-0.10407 -1.041,-0.15625 -1.6035,-0.15625 z m -8.0743,0.002 c -0.6388,0 -1.2222,0.18185 -1.75,0.54297 -0.4201,0.28192 -0.7753,0.66024 -1.0722,1.12695 v -1.51367 h -2.125 v 10.8125 h 2.125 v -6.84375 c 0,-0.65973 0.1847,-1.17296 0.5527,-1.54102 0.375,-0.375 0.8987,-0.5625 1.5723,-0.5625 0.375,10e-6 0.7055,0.0596 0.9902,0.17774 0.2848,0.11795 0.5215,0.29024 0.709,0.51953 l 1.3848,-1.875 c -0.2987,-0.27782 -0.65,-0.48616 -1.0528,-0.625 -0.3958,-0.14589 -0.8409,-0.21875 -1.334,-0.21875 z m 19.127,0 c -0.8195,0 -1.5666,0.1402 -2.2402,0.41797 -0.6667,0.27084 -1.2056,0.65148 -1.6153,1.14453 l 1.5528,1.0625 c 0.3194,-0.23602 0.684,-0.41875 1.0937,-0.55078 0.4167,-0.13203 0.8409,-0.19922 1.2715,-0.19922 0.6944,0 1.2285,0.19791 1.6035,0.59375 0.382,0.38889 0.5723,0.93815 0.5723,1.64649 v 0.45898 h -2.9785 c -1.2223,0 -2.1361,0.26605 -2.7403,0.80078 -0.6041,0.5347 -0.9062,1.3368 -0.9062,2.40625 0,1.12499 0.3305,1.96592 0.9902,2.52149 0.6597,0.54861 1.6569,0.82226 2.9902,0.82226 0.4514,0 0.8577,-0.0473 1.2188,-0.14453 0.3611,-0.0903 0.6764,-0.2305 0.9473,-0.41797 0.1811,-0.12225 0.3357,-0.27486 0.4785,-0.44141 v 0.84766 h 2.0215 v -6.94727 c 0,-0.84724 -0.1667,-1.56879 -0.5,-2.16601 -0.3334,-0.60417 -0.8201,-1.06251 -1.459,-1.375 -0.6389,-0.31945 -1.405,-0.48047 -2.3008,-0.48047 z m 11.875,0 c -0.9861,0 -1.8299,0.18468 -2.5313,0.55274 -0.6944,0.36112 -1.2257,0.88953 -1.5937,1.58398 -0.3681,0.69442 -0.5527,1.53059 -0.5527,2.50976 v 1.78126 c 0,0.99305 0.1846,1.83963 0.5527,2.54101 0.368,0.70141 0.8993,1.23742 1.5937,1.60547 0.7014,0.36805 1.5452,0.55078 2.5313,0.55078 0.5556,0 1.0792,-0.0652 1.5723,-0.19726 0.4999,-0.13199 0.9479,-0.32232 1.3437,-0.57227 0.3958,-0.25693 0.7292,-0.56661 1,-0.92773 l -1.5312,-1.47852 c -0.2987,0.36813 -0.6528,0.65219 -1.0625,0.85352 -0.4098,0.20132 -0.8397,0.30273 -1.2911,0.30273 -0.8264,0 -1.4666,-0.23393 -1.9179,-0.69922 -0.4445,-0.46526 -0.666,-1.12434 -0.666,-1.97851 v -1.78126 c 0,-0.83333 0.2263,-1.47916 0.6777,-1.9375 0.4514,-0.45833 1.0868,-0.68749 1.9062,-0.6875 0.4445,10e-6 0.8716,0.0938 1.2813,0.28126 0.4097,0.18751 0.7667,0.45552 1.0723,0.80273 l 1.5312,-1.375 c -0.2639,-0.36805 -0.5944,-0.68054 -0.9902,-0.9375 -0.3959,-0.25686 -0.8438,-0.45195 -1.3438,-0.58399 -0.493,-0.13883 -1.0195,-0.20898 -1.582,-0.20898 z m 22.416,0 c -0.9583,0 -1.7784,0.19791 -2.459,0.59375 -0.6805,0.39582 -1.2014,0.97351 -1.5625,1.73047 -0.3541,0.75694 -0.5312,1.66885 -0.5312,2.73828 v 1.21875 c 0,1.02778 0.1847,1.90755 0.5527,2.63672 0.375,0.72222 0.9167,1.26953 1.625,1.64453 0.7083,0.37501 1.5625,0.5625 2.5625,0.5625 0.6736,0 1.3431,-0.13824 2.0098,-0.41602 0.6666,-0.28472 1.268,-0.68337 1.8027,-1.19726 l -1.3965,-1.39648 c -0.3333,0.31251 -0.7111,0.5549 -1.1347,0.72851 -0.4237,0.17361 -0.8507,0.26172 -1.2813,0.26172 -0.868,0 -1.5375,-0.23958 -2.0098,-0.71875 -0.4547,-0.46143 -0.6863,-1.12094 -0.7031,-1.96875 h 6.8067 v -0.70899 c 0,-1.19443 -0.1696,-2.21809 -0.5098,-3.07226 -0.3334,-0.85417 -0.8201,-1.50761 -1.459,-1.95898 -0.6389,-0.45141 -1.4097,-0.67774 -2.3125,-0.67774 z m 27.5,0 c -0.9583,0 -1.7784,0.19791 -2.459,0.59375 -0.6805,0.39582 -1.2014,0.97351 -1.5625,1.73047 -0.3541,0.75694 -0.5312,1.66885 -0.5312,2.73828 v 1.21875 c 0,1.02778 0.1847,1.90755 0.5527,2.63672 0.375,0.72222 0.9167,1.26953 1.625,1.64453 0.7083,0.37501 1.5625,0.5625 2.5625,0.5625 0.6736,0 1.3431,-0.13824 2.0098,-0.41602 0.6666,-0.28472 1.268,-0.68337 1.8027,-1.19726 l -1.3965,-1.39648 c -0.3333,0.31251 -0.7111,0.5549 -1.1347,0.72851 -0.4237,0.17361 -0.8508,0.26172 -1.2813,0.26172 -0.8681,0 -1.5375,-0.23958 -2.0098,-0.71875 -0.4547,-0.46143 -0.6863,-1.12094 -0.7031,-1.96875 h 6.8067 v -0.70899 c 0,-1.19443 -0.1696,-2.21809 -0.5098,-3.07226 -0.3334,-0.85417 -0.8201,-1.50761 -1.459,-1.95898 -0.6389,-0.45141 -1.4097,-0.67774 -2.3125,-0.67774 z m 17.5938,0 c -0.6528,0 -1.2513,0.17708 -1.793,0.53125 -0.4253,0.28171 -0.7841,0.66217 -1.082,1.13281 v -1.50781 h -2.125 v 10.8125 h 2.125 v -6.84375 c 0,-0.66668 0.1875,-1.18273 0.5625,-1.55078 0.3819,-0.36805 0.9207,-0.55273 1.6152,-0.55274 0.6875,10e-6 1.2187,0.20835 1.5937,0.625 0.375,0.41669 0.5625,1.0076 0.5625,1.77149 v 6.55078 h 2.125 v -6.5625 c 0,-0.0311 0,-0.059 0,-0.0898 v 0.0176 c 0,-0.73612 0.18,-1.30621 0.5411,-1.70898 0.3611,-0.40277 0.8715,-0.60351 1.5312,-0.60352 0.7153,1e-5 1.2702,0.20835 1.666,0.625 0.3959,0.41669 0.5938,1.0076 0.5938,1.77149 v 6.55078 h 2.125 v -6.5625 c 0,-0.93054 -0.1458,-1.72504 -0.4375,-2.38477 -0.2848,-0.65972 -0.7042,-1.15971 -1.2598,-1.5 -0.5486,-0.34721 -1.2125,-0.52148 -1.9902,-0.52148 -0.6736,0 -1.291,0.19791 -1.8535,0.59375 -0.5305,0.37134 -0.9608,0.89553 -1.295,1.56445 -0.017,-0.0445 -0.03,-0.0934 -0.049,-0.13672 -0.2778,-0.65972 -0.684,-1.15971 -1.2187,-1.5 -0.5348,-0.34721 -1.1806,-0.52148 -1.9375,-0.52148 z m 23.125,0 c -0.6528,0 -1.2513,0.17708 -1.793,0.53125 -0.4264,0.2824 -0.7837,0.66446 -1.082,1.13672 v -1.51172 h -2.125 v 10.8125 h 2.125 v -6.84375 c 0,-0.66668 0.1875,-1.18273 0.5625,-1.55078 0.3819,-0.36805 0.9207,-0.55273 1.6152,-0.55274 0.6875,10e-6 1.2187,0.20835 1.5937,0.625 0.375,0.41669 0.5625,1.0076 0.5625,1.77149 v 6.55078 h 2.125 v -6.5625 c 0,-0.0311 0,-0.059 0,-0.0898 v 0.0176 c 0,-0.73612 0.1799,-1.30621 0.5411,-1.70898 0.3611,-0.40277 0.8715,-0.60351 1.5312,-0.60352 0.7153,1e-5 1.2702,0.20835 1.666,0.625 0.3959,0.41669 0.5938,1.0076 0.5938,1.77149 v 6.55078 h 2.125 v -6.5625 c 0,-0.93054 -0.1458,-1.72504 -0.4375,-2.38477 -0.2848,-0.65972 -0.7043,-1.15971 -1.2598,-1.5 -0.5486,-0.34721 -1.2125,-0.52148 -1.9902,-0.52148 -0.6736,0 -1.291,0.19791 -1.8535,0.59375 -0.5305,0.37134 -0.9608,0.89553 -1.295,1.56445 -0.017,-0.0445 -0.03,-0.0934 -0.049,-0.13672 -0.2778,-0.65972 -0.684,-1.15971 -1.2187,-1.5 -0.5348,-0.34721 -1.1806,-0.52148 -1.9375,-0.52148 z m 17.1562,0 c -0.8194,0 -1.5666,0.1402 -2.2402,0.41797 -0.6667,0.27084 -1.2036,0.65148 -1.6133,1.14453 l 1.5508,1.0625 c 0.3194,-0.23602 0.684,-0.41875 1.0937,-0.55078 0.4167,-0.13203 0.841,-0.19922 1.2715,-0.19922 0.6945,0 1.2285,0.19791 1.6035,0.59375 0.382,0.38889 0.5742,0.93815 0.5742,1.64649 v 0.45898 h -2.9804 c -1.2223,0 -2.1342,0.26605 -2.7383,0.80078 -0.6042,0.5347 -0.9063,1.3368 -0.9063,2.40625 0,1.12499 0.3286,1.96592 0.9883,2.52149 0.6598,0.54861 1.6569,0.82226 2.9903,0.82226 0.4513,0 0.8576,-0.0473 1.2187,-0.14453 0.3611,-0.0903 0.6765,-0.2305 0.9473,-0.41797 0.1818,-0.12269 0.3373,-0.27606 0.4804,-0.44336 v 0.84961 h 2.0196 v -6.94727 c 0,-0.84724 -0.1667,-1.56879 -0.5,-2.16601 -0.3334,-0.60417 -0.8182,-1.06251 -1.4571,-1.375 -0.6389,-0.31945 -1.4069,-0.48047 -2.3027,-0.48047 z m 12.457,0 c -0.6389,0 -1.2222,0.18185 -1.75,0.54297 -0.4207,0.28233 -0.7751,0.66122 -1.0722,1.12891 v -1.51563 h -2.125 v 10.8125 h 2.125 v -6.84375 c 0,-0.65973 0.1847,-1.17296 0.5527,-1.54102 0.375,-0.375 0.8987,-0.5625 1.5723,-0.5625 0.375,10e-6 0.7055,0.0596 0.9902,0.17774 0.2848,0.11795 0.5215,0.29024 0.709,0.51953 l 1.3848,-1.875 c -0.2987,-0.27782 -0.65,-0.48616 -1.0528,-0.625 -0.3958,-0.14589 -0.8409,-0.21875 -1.334,-0.21875 z m 25.084,0 c -0.9583,0 -1.7764,0.19791 -2.457,0.59375 -0.6806,0.39582 -1.2014,0.97351 -1.5625,1.73047 -0.3542,0.75694 -0.5313,1.66885 -0.5313,2.73828 v 1.21875 c 0,1.02778 0.1828,1.90755 0.5508,2.63672 0.375,0.72222 0.9167,1.26953 1.625,1.64453 0.7084,0.37501 1.5625,0.5625 2.5625,0.5625 0.6736,0 1.3451,-0.13824 2.0117,-0.41602 0.6667,-0.28472 1.2661,-0.68337 1.8008,-1.19726 l -1.3945,-1.39648 c -0.3334,0.31251 -0.7131,0.5549 -1.1367,0.72851 -0.4236,0.17361 -0.8507,0.26172 -1.2813,0.26172 -0.868,0 -1.5375,-0.23958 -2.0097,-0.71875 -0.4548,-0.46143 -0.6863,-1.12094 -0.7032,-1.96875 h 6.8067 v -0.70899 c 0,-1.19443 -0.1695,-2.21809 -0.5098,-3.07226 -0.3333,-0.85417 -0.8201,-1.50761 -1.459,-1.95898 -0.6389,-0.45141 -1.4097,-0.67774 -2.3125,-0.67774 z m 12.166,0 c -0.6389,0 -1.2222,0.18185 -1.75,0.54297 -0.4201,0.28192 -0.7753,0.66024 -1.0722,1.12695 v -1.51367 h -2.125 v 10.8125 h 2.125 v -6.84375 c 0,-0.65973 0.1846,-1.17296 0.5527,-1.54102 0.375,-0.375 0.8987,-0.5625 1.5723,-0.5625 0.375,10e-6 0.7055,0.0596 0.9902,0.17774 0.2848,0.11795 0.5215,0.29024 0.709,0.51953 l 1.3848,-1.875 c -0.2987,-0.27782 -0.65,-0.48616 -1.0528,-0.625 -0.3958,-0.14589 -0.8409,-0.21875 -1.334,-0.21875 z m 8.209,0 c -0.9583,0 -1.7765,0.19791 -2.457,0.59375 -0.6806,0.39582 -1.2014,0.97351 -1.5625,1.73047 -0.3542,0.75694 -0.5313,1.66885 -0.5313,2.73828 v 1.21875 c 0,1.02778 0.1828,1.90755 0.5508,2.63672 0.375,0.72222 0.9167,1.26953 1.625,1.64453 0.7084,0.37501 1.5625,0.5625 2.5625,0.5625 0.6736,0 1.3451,-0.13824 2.0117,-0.41602 0.6667,-0.28472 1.2661,-0.68337 1.8008,-1.19726 l -1.3945,-1.39648 c -0.3333,0.31251 -0.7131,0.5549 -1.1367,0.72851 -0.4236,0.17361 -0.8507,0.26172 -1.2813,0.26172 -0.868,0 -1.5375,-0.23958 -2.0097,-0.71875 -0.4548,-0.46143 -0.6863,-1.12094 -0.7032,-1.96875 h 6.8067 v -0.70899 c 0,-1.19443 -0.1695,-2.21809 -0.5098,-3.07226 -0.3333,-0.85417 -0.8201,-1.50761 -1.459,-1.95898 -0.6389,-0.45141 -1.4097,-0.67774 -2.3125,-0.67774 z m 12.2188,0 c -0.6528,0 -1.2494,0.17708 -1.791,0.53125 -0.4264,0.2824 -0.7857,0.66446 -1.084,1.13672 v -1.51172 h -2.125 v 10.8125 h 2.125 v -6.84375 c 0,-0.66668 0.1875,-1.18273 0.5625,-1.55078 0.3819,-0.36805 0.9208,-0.55273 1.6152,-0.55274 0.7153,10e-6 1.2702,0.20835 1.666,0.625 0.3959,0.41669 0.5938,1.0076 0.5938,1.77149 v 6.55078 h 2.12497 v -6.5625 c 0,-1.40278 -0.3229,-2.48613 -0.96877,-3.25 -0.6389,-0.77085 -1.5451,-1.15625 -2.7187,-1.15625 z m -225.75,0.15625 v 6.57422 c 0,1.39583 0.3229,2.47918 0.9687,3.25 0.6528,0.76389 1.5771,1.14453 2.7715,1.14453 0.7292,0 1.3437,-0.17989 1.8438,-0.54102 0.4054,-0.29279 0.7147,-0.64577 0.9375,-1.05273 v 1.4375 h 2.1152 v -10.8125 h -2.1152 v 6.82422 c 0,0.68057 -0.1904,1.20421 -0.5723,1.57227 -0.3819,0.36805 -0.9208,0.55273 -1.6152,0.55273 -0.7014,0 -1.2459,-0.20551 -1.6348,-0.61523 -0.382,-0.41666 -0.5742,-1.00283 -0.5742,-1.75977 v -6.57422 z m 104.959,0 v 10.8125 h 2.125 v -10.8125 z m 78.5839,0 v 10.8125 h 2.125 v -10.8125 z m -113.3027,1.76172 c 0.6597,0 1.1834,0.24523 1.5723,0.73828 0.3958,0.48612 0.625,1.17079 0.6875,2.05273 h -4.7774 c 0.035,-0.84544 0.2435,-1.51858 0.6426,-2 0.4445,-0.52777 1.0694,-0.79101 1.875,-0.79101 z m 15.8848,0 c 0.7014,0 1.243,0.21876 1.625,0.65625 0.3889,0.43749 0.584,1.05206 0.584,1.84375 v 2.34375 c 0,0.77778 -0.1951,1.38194 -0.584,1.8125 -0.382,0.42361 -0.9236,0.63476 -1.625,0.63476 -0.4514,0 -0.8368,-0.0862 -1.1563,-0.25976 -0.3126,-0.17361 -0.5522,-0.4236 -0.7187,-0.75 -0.1666,-0.32638 -0.25,-0.72222 -0.25,-1.1875 v -2.94922 c 0,-0.45138 0.083,-0.8368 0.25,-1.15625 0.1666,-0.32653 0.4062,-0.57173 0.7187,-0.73828 0.3195,-0.16655 0.7049,-0.25 1.1563,-0.25 z m 11.6152,0 c 0.6597,0 1.1834,0.24523 1.5723,0.73828 0.3958,0.48612 0.625,1.17079 0.6875,2.05273 h -4.7774 c 0.035,-0.84544 0.2435,-1.51858 0.6426,-2 0.4445,-0.52777 1.0694,-0.79101 1.875,-0.79101 z m 95.416,0 c 0.6597,0 1.1854,0.24523 1.5742,0.73828 0.3959,0.48612 0.6251,1.17079 0.6875,2.05273 h -4.7793 c 0.035,-0.84544 0.2436,-1.51858 0.6426,-2 0.4445,-0.52777 1.0695,-0.79101 1.875,-0.79101 z m 20.375,0 c 0.6598,0 1.1854,0.24523 1.5742,0.73828 0.3959,0.48612 0.6251,1.17079 0.6875,2.05273 h -4.7793 c 0.035,-0.84544 0.2436,-1.51858 0.6426,-2 0.4445,-0.52777 1.0695,-0.79101 1.875,-0.79101 z m -178.3125,4.36328 h 2.9688 v 2.04297 c 0,0.36805 -0.2008,0.63889 -0.6035,0.8125 -0.3959,0.17361 -1,0.25976 -1.8125,0.25976 -0.7431,0 -1.298,-0.13259 -1.6661,-0.39648 -0.3611,-0.26389 -0.5429,-0.67014 -0.5429,-1.21875 0,-0.50686 0.1354,-0.88185 0.4062,-1.125 0.2778,-0.24995 0.6945,-0.375 1.25,-0.375 z m 119.668,0 h 2.9687 v 2.04297 c 0,0.36805 -0.2027,0.63889 -0.6054,0.8125 -0.3959,0.17361 -1,0.25976 -1.8125,0.25976 -0.7431,0 -1.298,-0.13259 -1.666,-0.39648 -0.3612,-0.26389 -0.5411,-0.67014 -0.5411,-1.21875 0,-0.50686 0.1354,-0.88185 0.4063,-1.125 0.2778,-0.24995 0.6944,-0.375 1.25,-0.375 z m -78.209,2.45899 v 2.22851 h 2.2285 v -2.22851 z m 51.584,0 v 2.22851 h 2.2285 v -2.22851 z"
         transform="scale(0.26458333)"
         id="path5204" />
    </g>
    <g
       transform="translate(451.15638,111.23506)"
       aria-label="///only.sang.mediate"
       style="font-style:normal;font-variant:normal;font-weight:normal;font-stretch:normal;font-size:10.58333302px;line-height:1.25;font-family:Bahnschrift;-inkscape-font-specification:Bahnschrift;letter-spacing:0px;word-spacing:0px;fill:#ff0000;fill-opacity:1;stroke:none;stroke-width:0.26458332"
       id="text2239">
      <path
         inkscape:connector-curvature="0"
         style="font-size:5.64444447px;fill:#ff0000;fill-opacity:1;stroke-width:0.99999994"
         d="m -1251.7773,524.27539 -7.0313,19.8125 h 2.0313 l 7.0312,-19.8125 z m 8.0839,0 -7.0312,19.8125 h 2.0312 l 7.0313,-19.8125 z m 8.084,0 -7.0312,19.8125 h 2.0312 l 7.0313,-19.8125 z m 26.1563,1.79102 v 12.33398 c 0,0.90973 0.2187,1.61328 0.6562,2.11328 0.4445,0.49998 1.0695,0.75 1.875,0.75 h 1.25 v -2.01953 h -1 c -0.2082,0 -0.372,-0.0702 -0.4902,-0.20898 -0.1111,-0.14582 -0.166,-0.35135 -0.166,-0.61524 v -12.35351 z m 106.6445,0 v 5.69726 c -0.2929,-0.43414 -0.6486,-0.78667 -1.0723,-1.05078 -0.5277,-0.33333 -1.1111,-0.5 -1.75,-0.5 -0.7639,0 -1.4201,0.17232 -1.9687,0.51953 -0.5417,0.34029 -0.9555,0.84027 -1.2402,1.5 -0.2848,0.65971 -0.4258,1.45615 -0.4258,2.38672 v 2.38477 c 0,0.92361 0.1458,1.71527 0.4375,2.375 0.2917,0.6597 0.7139,1.16252 1.2695,1.50976 0.5625,0.34026 1.2396,0.51172 2.0313,0.51172 0.7152,0 1.3166,-0.18187 1.8027,-0.54297 0.3968,-0.29055 0.6992,-0.64002 0.916,-1.04297 v 1.39844 h 2.125 v -15.14648 z m 5.3555,0 v 2.125 h 2.125 v -2.125 z m 17.0312,1.1875 v 3.14648 h -1.1152 v 1.91602 h 1.1152 v 6.08398 c 0,0.94445 0.2007,1.65841 0.6035,2.14453 0.4098,0.47915 1.0528,0.71875 1.9278,0.71875 h 1.2285 v -2.01953 h -1.0215 c -0.2015,0 -0.353,-0.0702 -0.457,-0.20898 -0.1043,-0.14582 -0.1563,-0.35135 -0.1563,-0.61524 v -6.10351 h 1.6348 v -1.91602 h -1.6348 v -3.14648 z m -71.2929,2.95898 c -0.7639,0 -1.4202,0.17232 -1.9688,0.51953 -0.5417,0.34029 -0.9536,0.84027 -1.2383,1.5 -0.2847,0.65971 -0.4277,1.45615 -0.4277,2.38672 v 2.38477 c 0,0.92361 0.1458,1.71527 0.4375,2.375 0.2917,0.6597 0.7159,1.16252 1.2715,1.50976 0.5625,0.34026 1.2396,0.51172 2.0312,0.51172 0.7153,0 1.3147,-0.18187 1.8008,-0.54297 0.3981,-0.29147 0.701,-0.6423 0.918,-1.04687 v 1.39062 c 0,0.81945 -0.2235,1.45206 -0.668,1.89649 -0.4444,0.4514 -1.0723,0.67773 -1.8848,0.67773 -0.4236,0 -0.8298,-0.10412 -1.2187,-0.3125 -0.382,-0.20835 -0.7125,-0.50478 -0.9902,-0.88672 l -1.4375,1.30274 c 0.3541,0.54861 0.8513,0.97287 1.4902,1.27148 0.6458,0.30556 1.375,0.45703 2.1875,0.45703 0.9791,0 1.8153,-0.18273 2.5098,-0.55078 0.6944,-0.36807 1.2228,-0.9069 1.5839,-1.61523 0.3681,-0.70831 0.5528,-1.55968 0.5528,-2.55274 v -10.48828 h -2.125 v 1.36719 c -0.2933,-0.43572 -0.6495,-0.78989 -1.0742,-1.05469 -0.5278,-0.33333 -1.1112,-0.5 -1.75,-0.5 z m -33.8008,0.0273 c -0.9306,0 -1.7062,0.12979 -2.3242,0.38672 -0.6181,0.25001 -1.0821,0.62783 -1.3946,1.13477 -0.3125,0.50696 -0.4687,1.14236 -0.4687,1.90625 0,0.76387 0.159,1.35004 0.4785,1.75976 0.3264,0.40981 0.7326,0.69106 1.2187,0.84375 0.4861,0.14564 1.0799,0.24705 1.7813,0.30274 0.028,0 0.056,0.004 0.084,0.0117 h 0.082 c 0.056,0.008 0.1153,0.0139 0.1777,0.0215 h 0.1778 c 0.618,0.0486 1.0972,0.10548 1.4375,0.16797 0.3401,0.0557 0.6242,0.17014 0.8535,0.34375 0.229,0.17361 0.3437,0.43404 0.3437,0.78125 0,0.52084 -0.2111,0.9119 -0.6347,1.17578 -0.4167,0.25693 -1.0465,0.38672 -1.8867,0.38672 -0.5625,0 -1.1307,-0.11175 -1.7071,-0.33398 -0.5764,-0.22224 -1.1569,-0.55558 -1.7402,-1 l -1.2598,1.55273 c 0.4098,0.37506 0.8577,0.68755 1.3438,0.9375 0.4861,0.25003 1.0069,0.43752 1.5625,0.5625 0.5625,0.12498 1.1619,0.1875 1.8008,0.1875 1.0138,0 1.8548,-0.12976 2.5214,-0.38672 0.6737,-0.25693 1.1765,-0.63757 1.5098,-1.14453 0.3333,-0.51389 0.5,-1.15972 0.5,-1.9375 0,-0.85417 -0.1799,-1.50761 -0.541,-1.95898 -0.3611,-0.45148 -0.809,-0.75356 -1.3438,-0.90625 -0.5277,-0.1527 -1.1708,-0.25411 -1.9277,-0.30274 -0.021,-0.008 -0.042,-0.0117 -0.062,-0.0117 h -0.06 c -0.049,-0.008 -0.098,-0.01 -0.1465,-0.01 -0.042,0 -0.083,-0.004 -0.125,-0.0117 -0.5764,-0.0348 -1.0215,-0.0764 -1.334,-0.125 -0.3125,-0.0486 -0.5729,-0.14708 -0.7813,-0.29297 -0.2013,-0.14581 -0.3027,-0.36457 -0.3027,-0.65625 0,-0.49295 0.1819,-0.86037 0.543,-1.10352 0.3611,-0.24995 0.9028,-0.375 1.625,-0.375 0.5,0 1.0104,0.0862 1.5312,0.25977 0.5278,0.17361 1.0619,0.43401 1.6035,0.78125 l 1.2813,-1.55078 c -0.4306,-0.31257 -0.8785,-0.57016 -1.3438,-0.77149 -0.4652,-0.20842 -0.9548,-0.36468 -1.4687,-0.46875 -0.507,-0.10406 -1.041,-0.15625 -1.6035,-0.15625 z m -43.334,0.004 c -0.9375,0 -1.7396,0.18273 -2.4063,0.55078 -0.6666,0.3611 -1.177,0.89235 -1.5312,1.59375 -0.3472,0.69445 -0.5215,1.53257 -0.5215,2.51172 v 1.75977 c 0,0.99305 0.1743,1.8444 0.5215,2.55273 0.3542,0.70138 0.8646,1.23547 1.5312,1.60352 0.6667,0.36807 1.4688,0.55273 2.4063,0.55273 0.9375,0 1.7396,-0.18466 2.4062,-0.55273 0.6667,-0.36805 1.1743,-0.8993 1.5215,-1.59375 0.3542,-0.70138 0.5313,-1.54515 0.5313,-2.53125 v -1.79102 c 0,-0.97915 -0.1771,-1.81727 -0.5313,-2.51172 -0.3472,-0.7014 -0.8548,-1.23265 -1.5215,-1.59375 -0.6666,-0.36805 -1.4687,-0.55078 -2.4062,-0.55078 z m 12.4785,0 c -0.6528,0 -1.2494,0.17708 -1.791,0.53125 -0.426,0.28218 -0.7858,0.66304 -1.084,1.13477 v -1.50977 h -2.125 v 10.8125 h 2.125 v -6.84375 c 0,-0.66666 0.1875,-1.18468 0.5625,-1.55273 0.382,-0.36808 0.9208,-0.55274 1.6152,-0.55274 0.7153,0 1.2702,0.20832 1.6661,0.625 0.3958,0.41666 0.5937,1.00759 0.5937,1.77149 v 6.55273 h 2.125 v -6.5625 c 0,-1.40278 -0.3229,-2.48611 -0.9687,-3.25 -0.6389,-0.77082 -1.5452,-1.15625 -2.7188,-1.15625 z m 41.9063,0 c -0.8195,0 -1.5647,0.13825 -2.2383,0.41602 -0.6667,0.27084 -1.2055,0.65343 -1.6153,1.14648 l 1.5528,1.0625 c 0.3194,-0.23602 0.684,-0.4207 1.0937,-0.55273 0.4167,-0.13204 0.839,-0.19727 1.2696,-0.19727 0.6944,0 1.2304,0.19791 1.6054,0.59375 0.382,0.38889 0.5723,0.9362 0.5723,1.64453 v 0.45899 h -2.9785 c -1.2222,0 -2.1361,0.268 -2.7403,0.80273 -0.6041,0.53473 -0.9062,1.3368 -0.9062,2.40625 0,1.12499 0.3305,1.96397 0.9902,2.51953 0.6597,0.54861 1.655,0.82422 2.9883,0.82422 0.4514,0 0.8576,-0.0492 1.2188,-0.14648 0.3611,-0.0903 0.6784,-0.22855 0.9492,-0.41602 0.1811,-0.12227 0.3358,-0.27486 0.4785,-0.44141 v 0.84766 h 2.0215 v -6.94922 c 0,-0.84722 -0.1667,-1.5688 -0.5,-2.16601 -0.3334,-0.60417 -0.8201,-1.06251 -1.459,-1.375 -0.6389,-0.31945 -1.4069,-0.47852 -2.3027,-0.47852 z m 12.5117,0 c -0.6528,0 -1.2513,0.17708 -1.793,0.53125 -0.4254,0.28176 -0.7841,0.66205 -1.082,1.13281 v -1.50781 h -2.125 v 10.8125 h 2.125 v -6.84375 c 0,-0.66666 0.1875,-1.18468 0.5625,-1.55273 0.3819,-0.36808 0.9188,-0.55274 1.6133,-0.55274 0.7152,0 1.2721,0.20832 1.6679,0.625 0.3959,0.41666 0.5938,1.00759 0.5938,1.77149 v 6.55273 h 2.125 v -6.5625 c 0,-1.40278 -0.3229,-2.48611 -0.9688,-3.25 -0.6389,-0.77082 -1.5451,-1.15625 -2.7187,-1.15625 z m 28.25,0 c -0.6528,0 -1.2513,0.17708 -1.793,0.53125 -0.4254,0.28176 -0.7841,0.66205 -1.082,1.13281 v -1.50781 h -2.125 v 10.8125 h 2.125 v -6.84375 c 0,-0.66666 0.1875,-1.18468 0.5625,-1.55273 0.3819,-0.36808 0.9188,-0.55274 1.6133,-0.55274 0.6875,0 1.2187,0.20832 1.5937,0.625 0.375,0.41666 0.5625,1.00759 0.5625,1.77149 v 6.55273 h 2.125 v -6.5625 c 0,-0.0317 0,-0.0604 0,-0.0918 v 0.0176 c 0,-0.7361 0.1819,-1.30426 0.543,-1.70703 0.3611,-0.4028 0.8715,-0.60547 1.5312,-0.60547 0.7153,0 1.2702,0.20832 1.666,0.625 0.3959,0.41666 0.5938,1.00759 0.5938,1.77149 v 6.55273 h 2.125 v -6.5625 c 0,-0.93057 -0.1459,-1.72699 -0.4375,-2.38672 -0.2847,-0.6597 -0.7042,-1.15971 -1.2598,-1.5 -0.5486,-0.34721 -1.2124,-0.51953 -1.9902,-0.51953 -0.6736,0 -1.291,0.19793 -1.8535,0.59375 -0.5305,0.37134 -0.9608,0.89551 -1.2949,1.56445 -0.018,-0.045 -0.03,-0.0949 -0.049,-0.13867 -0.2778,-0.6597 -0.684,-1.15971 -1.2187,-1.5 -0.5347,-0.34721 -1.1806,-0.51953 -1.9375,-0.51953 z m 17.5312,0 c -0.9583,0 -1.7784,0.19793 -2.459,0.59375 -0.6805,0.39584 -1.2013,0.97158 -1.5625,1.72852 -0.3541,0.75693 -0.5312,1.67078 -0.5312,2.74023 v 1.21875 c 0,1.02778 0.1846,1.90559 0.5527,2.63477 0.375,0.72221 0.9167,1.27148 1.625,1.64648 0.7084,0.37501 1.5625,0.5625 2.5625,0.5625 0.6736,0 1.3431,-0.14017 2.0098,-0.41797 0.6666,-0.28472 1.268,-0.68337 1.8027,-1.19726 l -1.3965,-1.39649 c -0.3333,0.31249 -0.7111,0.55686 -1.1347,0.73047 -0.4236,0.17361 -0.8507,0.25977 -1.2813,0.25977 -0.868,0 -1.5395,-0.23959 -2.0117,-0.71875 -0.4547,-0.46143 -0.6843,-1.12093 -0.7012,-1.96875 h 6.8067 v -0.70899 c 0,-1.19445 -0.1715,-2.21809 -0.5117,-3.07226 -0.3334,-0.85415 -0.8182,-1.50759 -1.4571,-1.95899 -0.6389,-0.45137 -1.4097,-0.67578 -2.3125,-0.67578 z m 27.9571,0 c -0.8195,0 -1.5647,0.13825 -2.2383,0.41602 -0.6667,0.27084 -1.2055,0.65343 -1.6153,1.14648 l 1.5528,1.0625 c 0.3194,-0.23602 0.684,-0.4207 1.0937,-0.55273 0.4167,-0.13204 0.839,-0.19727 1.2696,-0.19727 0.6944,0 1.2304,0.19791 1.6054,0.59375 0.382,0.38889 0.5723,0.9362 0.5723,1.64453 v 0.45899 h -2.9785 c -1.2222,0 -2.1361,0.268 -2.7403,0.80273 -0.6041,0.53473 -0.9062,1.3368 -0.9062,2.40625 0,1.12499 0.3305,1.96397 0.9902,2.51953 0.6598,0.54861 1.655,0.82422 2.9883,0.82422 0.4514,0 0.8577,-0.0492 1.2188,-0.14648 0.3611,-0.0903 0.6783,-0.22855 0.9492,-0.41602 0.1811,-0.12227 0.3358,-0.27486 0.4785,-0.44141 v 0.84766 h 2.0215 v -6.94922 c 0,-0.84722 -0.1667,-1.5688 -0.5,-2.16601 -0.3334,-0.60417 -0.8201,-1.06251 -1.459,-1.375 -0.6389,-0.31945 -1.4069,-0.47852 -2.3027,-0.47852 z m 18.7089,0 c -0.9583,0 -1.7784,0.19793 -2.4589,0.59375 -0.6806,0.39584 -1.2014,0.97158 -1.5625,1.72852 -0.3542,0.75693 -0.5313,1.67078 -0.5313,2.74023 v 1.21875 c 0,1.02778 0.1847,1.90559 0.5527,2.63477 0.375,0.72221 0.9167,1.27148 1.625,1.64648 0.7084,0.37501 1.5626,0.5625 2.5625,0.5625 0.6737,0 1.3431,-0.14017 2.0098,-0.41797 0.6667,-0.28472 1.268,-0.68337 1.8027,-1.19726 l -1.3964,-1.39649 c -0.3334,0.31249 -0.7112,0.55686 -1.1348,0.73047 -0.4236,0.17361 -0.8507,0.25977 -1.2813,0.25977 -0.868,0 -1.5375,-0.23959 -2.0097,-0.71875 -0.4548,-0.46144 -0.6863,-1.12092 -0.7031,-1.96875 h 6.8066 v -0.70899 c 0,-1.19445 -0.1695,-2.21809 -0.5098,-3.07226 -0.3333,-0.85415 -0.8201,-1.50759 -1.459,-1.95899 -0.6389,-0.45137 -1.4097,-0.67578 -2.3125,-0.67578 z m -134.9277,0.15625 3.9238,10.64063 -0.5175,1.57812 c -0.1737,0.38886 -0.3772,0.66252 -0.6133,0.82227 -0.2292,0.15974 -0.5417,0.24023 -0.9375,0.24023 h -0.4278 v 2.04102 h 0.4278 c 0.5764,0 1.0612,-0.0625 1.457,-0.1875 0.3958,-0.12501 0.7292,-0.33333 1,-0.625 0.2709,-0.28473 0.4897,-0.67297 0.6563,-1.16602 l 4.6054,-13.34375 h -2.1679 l -2.5176,7.69141 -2.7207,-7.69141 z m 106.9805,0 v 10.8125 h 2.125 v -10.8125 z m -53.5625,1.75 c 0.4514,0 0.832,0.0862 1.1445,0.25977 0.3196,0.16667 0.5639,0.41386 0.7305,0.74023 0.1668,0.3264 0.25,0.71745 0.25,1.17578 v 2.90625 c 0,0.46529 -0.083,0.86589 -0.25,1.19922 -0.1667,0.33323 -0.411,0.58887 -0.7305,0.76953 -0.3125,0.17361 -0.6931,0.26172 -1.1445,0.26172 -0.7014,0 -1.2479,-0.21311 -1.6367,-0.63672 -0.382,-0.43054 -0.5723,-1.03753 -0.5723,-1.82226 v -2.35352 c 0,-0.79168 0.1903,-1.40626 0.5723,-1.84375 0.3888,-0.43749 0.9353,-0.65625 1.6367,-0.65625 z m 46.082,0 c 0.4514,0 0.834,0.0862 1.1465,0.25977 0.3196,0.16667 0.562,0.41386 0.7285,0.74023 0.1668,0.3264 0.25,0.71745 0.25,1.17578 v 2.90625 c 0,0.46529 -0.083,0.86589 -0.25,1.19922 -0.1667,0.33323 -0.4091,0.58887 -0.7285,0.76953 -0.3125,0.17361 -0.6951,0.26172 -1.1465,0.26172 -0.7014,0 -1.2459,-0.21311 -1.6348,-0.63672 -0.3819,-0.43054 -0.5722,-1.03753 -0.5722,-1.82226 v -2.35352 c 0,-0.79168 0.1903,-1.40626 0.5722,-1.84375 0.3889,-0.43749 0.9334,-0.65625 1.6348,-0.65625 z m -11.2383,0.01 c 0.6598,0 1.1834,0.24715 1.5723,0.74023 0.3958,0.4861 0.625,1.16884 0.6875,2.05078 h -4.7774 c 0.035,-0.84542 0.2435,-1.51858 0.6426,-2 0.4444,-0.5278 1.0695,-0.79101 1.875,-0.79101 z m 46.666,0 c 0.6598,0 1.1834,0.24715 1.5723,0.74023 0.3958,0.4861 0.625,1.16884 0.6875,2.05078 h -4.7773 c 0.035,-0.84542 0.2435,-1.51858 0.6425,-2 0.4445,-0.5278 1.0695,-0.79101 1.875,-0.79101 z m -159.3437,0.10351 c 0.743,0 1.316,0.22915 1.7187,0.6875 0.4098,0.45833 0.6153,1.10896 0.6153,1.94922 v 1.79102 c 0,0.84026 -0.2055,1.4937 -0.6153,1.95898 -0.4027,0.46529 -0.9757,0.69727 -1.7187,0.69727 -0.7431,0 -1.3188,-0.23198 -1.7285,-0.69727 -0.4028,-0.46528 -0.6055,-1.11872 -0.6055,-1.95898 v -1.79102 c 0,-0.84026 0.2027,-1.49089 0.6055,-1.94922 0.4097,-0.45835 0.9854,-0.6875 1.7285,-0.6875 z m 53.6562,4.26172 h 2.9688 v 2.04102 c 0,0.36807 -0.2008,0.63889 -0.6035,0.8125 -0.3959,0.1736 -1,0.25976 -1.8125,0.25976 -0.7431,0 -1.2999,-0.13064 -1.668,-0.39453 -0.3611,-0.26389 -0.541,-0.67014 -0.541,-1.21875 0,-0.50686 0.1354,-0.88185 0.4062,-1.125 0.2778,-0.24995 0.6945,-0.375 1.25,-0.375 z m 86.25,0 h 2.9688 v 2.04102 c 0,0.36807 -0.2007,0.63889 -0.6035,0.8125 -0.3958,0.1736 -1,0.25976 -1.8125,0.25976 -0.7431,0 -1.2999,-0.13064 -1.668,-0.39453 -0.3611,-0.26389 -0.541,-0.67014 -0.541,-1.21875 0,-0.50686 0.1354,-0.88185 0.4062,-1.125 0.2778,-0.24995 0.6945,-0.375 1.25,-0.375 z m -105.666,2.45703 v 2.23047 h 2.2285 v -2.23047 z m 50.7071,0 v 2.23047 h 2.2304 v -2.23047 z"
         transform="scale(0.26458333)"
         id="path5255" />
    </g>
    <g
       transform="translate(451.15638,111.23506)"
       aria-label="MARIAN ALDENHÖVEL"
       style="font-style:normal;font-variant:normal;font-weight:normal;font-stretch:normal;font-size:10.58333302px;line-height:10px;font-family:Bahnschrift;-inkscape-font-specification:Bahnschrift;letter-spacing:0px;word-spacing:0px;fill:#ff0000;fill-opacity:1;stroke:none;stroke-width:0.26458332"
       id="text2489">
      <path
         inkscape:connector-curvature="0"
         style="font-size:9.87777805px;line-height:10px;text-align:end;text-anchor:end;fill:#ff0000;fill-opacity:1;stroke-width:0.99999994"
         d="m -1581.7324,490.86719 v 26.50586 h 3.6269 v -17.91211 l 6.3438,14.23047 h 2.5879 l 6.3437,-14.58203 v 18.26367 h 3.6289 v -26.50586 h -3.4824 l -7.7832,17.5 -7.7852,-17.5 z"
         transform="scale(0.26458333)"
         id="path5296" />
      <path
         inkscape:connector-curvature="0"
         style="font-size:9.87777805px;line-height:10px;text-align:end;text-anchor:end;fill:#ff0000;fill-opacity:1;stroke:none;stroke-width:0.99999994;stroke-opacity:1"
         d="m -1545.7852,490.86719 -9.7714,26.50586 h 4.0117 l 1.998,-5.81446 h 10.6953 l 1.9981,5.81446 h 4.0117 l -9.7715,-26.50586 z m 1.586,5.12304 4.1328,12.03125 h -8.2656 z"
         transform="scale(0.26458333)"
         id="path5298" />
      <path
         inkscape:connector-curvature="0"
         style="font-size:9.87777805px;line-height:10px;text-align:end;text-anchor:end;fill:#ff0000;fill-opacity:1;stroke-width:0.99999994"
         d="m -1528.7949,490.84961 v 26.52344 h 3.7187 v -11.21094 h 5.5352 l 5.6562,11.21094 h 4.4121 l -6.1191,-11.61328 c 0.4627,-0.14559 0.9087,-0.31749 1.3242,-0.54493 1.1667,-0.63196 2.0727,-1.52519 2.7168,-2.67968 0.6441,-1.16669 0.9668,-2.51021 0.9668,-4.0293 0,-1.51909 -0.3227,-2.85525 -0.9668,-4.00977 -0.6319,-1.16666 -1.5306,-2.06728 -2.6972,-2.69921 -1.1545,-0.63194 -2.4981,-0.94727 -4.0293,-0.94727 h -6.7989 -2.0976 z m 3.7187,3.53711 h 6.9453 c 0.717,0 1.3423,0.16948 1.877,0.50976 0.5469,0.34029 0.9661,0.82705 1.2578,1.45899 0.3038,0.61979 0.4551,1.33615 0.4551,2.15039 0,0.81424 -0.1513,1.53796 -0.4551,2.16992 -0.2917,0.61979 -0.7109,1.0992 -1.2578,1.43945 -0.5469,0.34029 -1.1721,0.50977 -1.877,0.50977 h -6.9453 z"
         transform="scale(0.26458333)"
         id="path5300" />
      <path
         inkscape:connector-curvature="0"
         d="m -397.06613,136.88834 h -0.98392 v -7.01284 h 0.98392 z"
         style="font-size:9.87777805px;line-height:10px;text-align:end;text-anchor:end;fill:#ff0000;fill-opacity:1;stroke-width:0.26458332"
         id="path5302" />
      <path
         inkscape:connector-curvature="0"
         style="font-size:9.87777805px;line-height:10px;text-align:end;text-anchor:end;fill:#ff0000;fill-opacity:1;stroke-width:0.99999994"
         d="m -1487.3066,490.86719 -9.7696,26.50586 h 4.0098 l 1.998,-5.81446 h 10.6973 l 1.9981,5.81446 h 4.0097 l -9.7715,-26.50586 z m 1.5859,5.12304 4.1348,12.03125 h -8.2676 z"
         transform="scale(0.26458333)"
         id="path5304" />
      <path
         inkscape:connector-curvature="0"
         style="font-size:9.87777805px;line-height:10px;text-align:end;text-anchor:end;fill:#ff0000;fill-opacity:1;stroke-width:0.99999994"
         d="m -1470.3164,490.86719 v 26.48828 h 3.6816 v -19.49609 l 12.4883,19.49609 h 3.4082 v -26.48828 h -3.6816 v 19.79883 l -12.5235,-19.79883 z"
         transform="scale(0.26458333)"
         id="path5306" />
      <path
         inkscape:connector-curvature="0"
         style="font-size:9.87777805px;line-height:10px;text-align:end;text-anchor:end;fill:#ff0000;fill-opacity:1;stroke-width:0.99999994"
         d="m -1670.6191,529.44727 -9.7696,26.50585 h 4.0098 l 1.998,-5.8164 h 10.6973 l 1.9981,5.8164 h 4.0097 l -9.7715,-26.50585 z m 1.5859,5.12304 4.1348,12.03125 h -8.2676 z"
         transform="scale(0.26458333)"
         id="path5308" />
      <path
         inkscape:connector-curvature="0"
         style="font-size:9.87777805px;line-height:10px;text-align:end;text-anchor:end;fill:#ff0000;fill-opacity:1;stroke-width:0.99999994"
         d="m -1653.6289,529.44727 v 26.50585 h 1.8594 1.8593 13.3067 v -3.5371 h -13.3067 v -22.96875 z"
         transform="scale(0.26458333)"
         id="path5310" />
      <path
         inkscape:connector-curvature="0"
         style="font-size:9.87777805px;line-height:10px;text-align:end;text-anchor:end;fill:#ff0000;fill-opacity:1;stroke-width:0.99999994"
         d="m -1632.1914,529.44727 v 26.50585 h 2.5156 1.2031 4.6661 c 2.1267,10e-6 3.9442,-0.37196 5.4511,-1.11328 1.5191,-0.74131 2.673,-1.82225 3.4629,-3.24414 0.79,-1.42186 1.1856,-3.13541 1.1856,-5.14062 v -7.50977 c 0,-2.00521 -0.3956,-3.71874 -1.1856,-5.14062 -0.7899,-1.42186 -1.9383,-2.50478 -3.4453,-3.2461 -1.5069,-0.74134 -3.3225,-1.11132 -5.4492,-1.11132 h -4.6856 -1.2031 z m 3.7187,3.53711 h 4.795 c 1.9566,0 3.4696,0.51039 4.539,1.53124 1.0816,1.00869 1.6211,2.436 1.6211,4.28321 v 7.80273 c 0,1.84723 -0.5395,3.27996 -1.6211,4.30078 -1.0694,1.00868 -2.5824,1.51368 -4.539,1.51368 h -4.795 z"
         transform="scale(0.26458333)"
         id="path5312" />
      <path
         inkscape:connector-curvature="0"
         style="font-size:9.87777805px;line-height:10px;text-align:end;text-anchor:end;fill:#ff0000;fill-opacity:1;stroke-width:0.99999994"
         d="m -1608.0566,529.44727 v 26.50585 h 1.8046 1.9141 13.3086 v -3.5371 h -13.3086 v -7.85743 h 11.3027 v -3.53515 h -11.3027 v -8.03906 h 13.3086 v -3.53711 h -13.3086 -1.9141 z"
         transform="scale(0.26458333)"
         id="path5314" />
      <path
         inkscape:connector-curvature="0"
         style="font-size:9.87777805px;line-height:10px;text-align:end;text-anchor:end;fill:#ff0000;fill-opacity:1;stroke-width:0.99999994"
         d="m -1585.7441,529.44727 v 26.48632 h 3.6836 V 536.4375 l 12.4863,19.49609 h 3.4082 v -26.48632 h -3.6817 v 19.79882 l -12.5234,-19.79882 z"
         transform="scale(0.26458333)"
         id="path5316" />
      <path
         inkscape:connector-curvature="0"
         style="font-size:9.87777805px;line-height:10px;text-align:end;text-anchor:end;fill:#ff0000;fill-opacity:1;stroke-width:0.99999994"
         d="m -1559.5664,529.44727 v 26.50585 h 3.7187 v -11.28515 h 11.3379 v 11.28515 h 3.7188 v -26.50585 h -3.7188 v 11.68554 h -11.3379 v -11.68554 z"
         transform="scale(0.26458333)"
         id="path5318" />
      <path
         inkscape:connector-curvature="0"
         style="font-size:9.87777805px;line-height:10px;text-align:end;text-anchor:end;fill:#ff0000;fill-opacity:1;stroke-width:0.99999994"
         d="m -1531.0195,523.55859 v 3.71875 h 3.7187 v -3.71875 z m 7.4746,0 v 3.71875 h 3.7187 v -3.71875 z m -1.8789,5.61524 c -1.8472,0 -3.4751,0.40647 -4.8848,1.2207 -1.4097,0.80207 -2.5035,1.94508 -3.2812,3.42774 -0.7657,1.47048 -1.1485,3.1786 -1.1485,5.12304 v 7.50977 c 0,1.94444 0.3828,3.65799 1.1485,5.14062 0.7777,1.47049 1.8715,2.6135 3.2812,3.42774 1.4097,0.80209 3.0376,1.20312 4.8848,1.20312 1.8472,0 3.477,-0.40103 4.8867,-1.20312 1.4097,-0.81424 2.4961,-1.95725 3.2617,-3.42774 0.7778,-1.48263 1.168,-3.19618 1.168,-5.14062 v -7.50977 c 0,-1.94444 -0.3902,-3.65256 -1.168,-5.12304 -0.7656,-1.48266 -1.852,-2.62567 -3.2617,-3.42774 -1.4097,-0.81423 -3.0395,-1.2207 -4.8867,-1.2207 z m 0,3.66406 c 1.0937,0 2.0544,0.24978 2.8808,0.74805 0.8386,0.4861 1.482,1.18423 1.9317,2.0957 0.4618,0.8993 0.6933,1.94379 0.6933,3.13477 v 7.76562 c 0,1.19098 -0.2315,2.24285 -0.6933,3.1543 -0.4497,0.8993 -1.0931,1.59743 -1.9317,2.0957 -0.8264,0.48612 -1.7871,0.73047 -2.8808,0.73047 -1.0938,0 -2.0599,-0.24435 -2.8985,-0.73047 -0.8263,-0.49827 -1.4698,-1.1964 -1.9316,-2.0957 -0.4496,-0.91145 -0.6738,-1.96332 -0.6738,-3.1543 v -7.76562 c 0,-1.19098 0.2242,-2.23547 0.6738,-3.13477 0.4618,-0.91147 1.1053,-1.6096 1.9316,-2.0957 0.8386,-0.49827 1.8047,-0.74805 2.8985,-0.74805 z"
         transform="scale(0.26458333)"
         id="path5320" />
      <path
         inkscape:connector-curvature="0"
         style="font-size:9.87777805px;line-height:10px;text-align:end;text-anchor:end;fill:#ff0000;fill-opacity:1;stroke-width:0.99999994"
         d="m -1512.791,529.44727 8.6406,26.50585 h 3.5371 l 8.6406,-26.50585 h -4.0468 l -6.3614,20.78125 -6.3632,-20.78125 z"
         transform="scale(0.26458333)"
         id="path5322" />
      <path
         inkscape:connector-curvature="0"
         style="font-size:9.87777805px;line-height:10px;text-align:end;text-anchor:end;fill:#ff0000;fill-opacity:1;stroke-width:0.99999994"
         d="m -1487.8887,529.44727 v 26.50585 h 1.8047 1.9141 13.3066 v -3.5371 h -13.3066 v -7.85743 h 11.3008 v -3.53515 h -11.3008 v -8.03906 h 13.3066 v -3.53711 h -13.3066 -1.9141 z"
         transform="scale(0.26458333)"
         id="path5324" />
      <path
         inkscape:connector-curvature="0"
         style="font-size:9.87777805px;line-height:10px;text-align:end;text-anchor:end;fill:#ff0000;fill-opacity:1;stroke-width:0.99999994"
         d="m -1465.5762,529.44727 v 26.50585 h 1.8594 1.8594 13.3066 v -3.5371 h -13.3066 v -22.96875 z"
         transform="scale(0.26458333)"
         id="path5326" />
    </g>
  </g>
  <g
     inkscape:groupmode="layer"
     id="layer2"
     inkscape:label="Hilfslinien" />
</svg>
