<?xml version="1.0" standalone="no"?>
<!DOCTYPE svg PUBLIC "-//W3C//DTD SVG 20010904//EN"
 "http://www.w3.org/TR/2001/REC-SVG-20010904/DTD/svg10.dtd">
<svg version="1.0" xmlns="http://www.w3.org/2000/svg"
 width="567.000000pt" height="567.000000pt" viewBox="0 0 567.000000 567.000000"
 preserveAspectRatio="xMidYMid meet">
<metadata>
Created by potrace 1.14, written by Peter Selinger 2001-2017
</metadata>
<g transform="translate(0.000000,567.000000) scale(0.100000,-0.100000)"
fill="#000000" stroke="none">
<path d="M345 5636 c-127 -41 -229 -126 -286 -241 l-34 -70 -5 -895 c-3 -492
-5 -1608 -5 -2480 l0 -1585 26 -66 c48 -124 127 -206 255 -267 l59 -27 2486 0
2485 0 77 38 c138 68 233 193 256 337 15 89 15 4825 1 4901 -13 70 -58 163
-104 215 -48 56 -136 113 -208 136 -58 17 -153 18 -2511 17 -1954 0 -2460 -3
-2492 -13z m185 -366 c26 -14 43 -71 31 -103 -34 -89 -155 -91 -177 -2 -8 31
12 81 40 100 24 17 79 20 106 5z m4726 -5 c48 -33 54 -105 14 -145 -35 -35
-117 -20 -138 24 -25 53 -20 95 16 122 23 18 83 17 108 -1z m-2148 -116 c192
-51 355 -184 432 -354 62 -135 60 -106 60 -1091 0 -982 1 -955 -58 -1073 -15
-30 -52 -80 -83 -111 -107 -109 -242 -164 -471 -194 l-38 -5 0 169 0 168 50
11 c72 16 143 54 179 98 56 68 61 102 61 454 l0 317 -62 -34 c-65 -35 -175
-74 -209 -74 -18 0 -19 10 -19 178 l0 179 43 19 c64 29 123 93 141 155 24 79
23 604 -1 674 -19 58 -80 122 -140 149 l-43 19 0 189 0 188 43 -6 c23 -3 75
-14 115 -25z m-408 -166 l0 -188 -57 -30 c-64 -33 -116 -93 -133 -153 -6 -20
-13 -166 -17 -324 -7 -323 -4 -344 65 -420 32 -35 104 -78 132 -78 17 0 9
-351 -8 -357 -7 -3 -50 4 -96 16 -218 54 -367 169 -444 342 -54 119 -57 145
-57 519 l0 345 26 63 c74 174 188 298 346 374 72 35 193 76 231 77 9 1 12 -43
12 -186z m-277 -1901 c37 -4 37 -4 37 -51 0 -58 24 -160 49 -209 26 -51 86
-104 144 -128 l47 -19 0 -173 0 -173 -37 7 c-83 14 -200 60 -267 104 -172 112
-286 321 -311 567 l-7 72 39 3 c55 6 262 6 306 0z m522 -1721 c90 -41 145
-126 145 -226 0 -138 -101 -243 -240 -250 -73 -4 -164 37 -206 92 -98 128 -61
308 78 377 65 32 161 36 223 7z m2330 -836 c29 -28 32 -63 10 -105 -18 -35
-43 -50 -85 -50 -43 0 -65 14 -80 49 -15 37 1 93 33 116 34 24 94 19 122 -10z"/>
</g>
</svg>
